<svg width="87" height="101" viewBox="0 0 87 101" fill="none" xmlns="http://www.w3.org/2000/svg">
<path d="M81.4734 0C81.4734 0.304011 81.4023 0.613796 81.2376 0.893867L47.9339 57.5679C49.4107 57.8496 50.8544 58.2544 52.2394 58.8128C52.3213 58.8459 52.3983 58.8863 52.4802 58.9202L86.9996 0.000234766L81.4734 0Z" fill="#D0A32D"/>
<path d="M81.4734 0C81.4734 0.304011 81.4023 0.613796 81.2376 0.893867L47.9339 57.5679C49.4107 57.8496 50.8544 58.2544 52.2394 58.8128C52.3213 58.8459 52.3983 58.8863 52.4802 58.9202L86.9996 0.000234766L81.4734 0Z" fill="#D0A32D"/>
<path d="M81.4734 0C81.4734 0.304011 81.4023 0.613796 81.2376 0.893867L47.9339 57.5679C49.4107 57.8496 50.8544 58.2544 52.2394 58.8128C52.3213 58.8459 52.3983 58.8863 52.4802 58.9202L86.9996 0.000234766L81.4734 0Z" fill="#D0A32D"/>
<path d="M81.4734 0C81.4734 0.304011 81.4023 0.613796 81.2376 0.893867L47.9339 57.5679C49.4107 57.8496 50.8544 58.2544 52.2394 58.8128C52.3213 58.8459 52.3983 58.8863 52.4802 58.9202L86.9996 0.000234766L81.4734 0Z" fill="#D0A32D"/>
<path d="M23.8849 80.4743C23.8849 91.2732 32.683 100.058 43.4982 100.058C54.3135 100.058 63.1115 91.2734 63.1115 80.4743C63.1115 69.676 54.3118 60.8903 43.4982 60.8903C32.6847 60.8903 23.8849 69.676 23.8849 80.4743Z" fill="#D0A32D"/>
<path d="M23.8849 80.4743C23.8849 91.2732 32.683 100.058 43.4982 100.058C54.3135 100.058 63.1115 91.2734 63.1115 80.4743C63.1115 69.676 54.3118 60.8903 43.4982 60.8903C32.6847 60.8903 23.8849 69.676 23.8849 80.4743Z" fill="#D0A32D"/>
<path d="M23.8849 80.4743C23.8849 91.2732 32.683 100.058 43.4982 100.058C54.3135 100.058 63.1115 91.2734 63.1115 80.4743C63.1115 69.676 54.3118 60.8903 43.4982 60.8903C32.6847 60.8903 23.8849 69.676 23.8849 80.4743Z" fill="#D0A32D"/>
<path d="M23.8849 80.4743C23.8849 91.2732 32.683 100.058 43.4982 100.058C54.3135 100.058 63.1115 91.2734 63.1115 80.4743C63.1115 69.676 54.3118 60.8903 43.4982 60.8903C32.6847 60.8903 23.8849 69.676 23.8849 80.4743Z" fill="#D0A32D"/>
<path d="M42.4599 57.099L44.05 57.156L44.7583 55.9482L77.6384 0.00170898H72.4079L43.5012 49.3393L14.5945 0.00170898H9.35663C13.5446 7.15332 41.4658 54.8527 42.4613 57.1008L42.4599 57.099Z" fill="#D0A32D"/>
<path d="M42.4599 57.099L44.05 57.156L44.7583 55.9482L77.6384 0.00170898H72.4079L43.5012 49.3393L14.5945 0.00170898H9.35663C13.5446 7.15332 41.4658 54.8527 42.4613 57.1008L42.4599 57.099Z" fill="#D0A32D"/>
<path d="M42.4599 57.099L44.05 57.156L44.7583 55.9482L77.6384 0.00170898H72.4079L43.5012 49.3393L14.5945 0.00170898H9.35663C13.5446 7.15332 41.4658 54.8527 42.4613 57.1008L42.4599 57.099Z" fill="#D0A32D"/>
<path d="M42.4599 57.099L44.05 57.156L44.7583 55.9482L77.6384 0.00170898H72.4079L43.5012 49.3393L14.5945 0.00170898H9.35663C13.5446 7.15332 41.4658 54.8527 42.4613 57.1008L42.4599 57.099Z" fill="#D0A32D"/>
<path d="M34.7544 58.8139C35.1383 58.6602 38.9011 57.4698 38.9011 57.4698L5.75832 0.895148C5.59368 0.613449 5.52252 0.305293 5.52252 0.00128174H0L34.5195 58.9191C34.5997 58.8861 34.6758 58.8456 34.7553 58.8134L34.7544 58.8139Z" fill="#D0A32D"/>
<path d="M34.7544 58.8139C35.1383 58.6602 38.9011 57.4698 38.9011 57.4698L5.75832 0.895148C5.59368 0.613449 5.52252 0.305293 5.52252 0.00128174H0L34.5195 58.9191C34.5997 58.8861 34.6758 58.8456 34.7553 58.8134L34.7544 58.8139Z" fill="#D0A32D"/>
<path d="M34.7544 58.8139C35.1383 58.6602 38.9011 57.4698 38.9011 57.4698L5.75832 0.895148C5.59368 0.613449 5.52252 0.305293 5.52252 0.00128174H0L34.5195 58.9191C34.5997 58.8861 34.6758 58.8456 34.7553 58.8134L34.7544 58.8139Z" fill="#D0A32D"/>
<path d="M34.7544 58.8139C35.1383 58.6602 38.9011 57.4698 38.9011 57.4698L5.75832 0.895148C5.59368 0.613449 5.52252 0.305293 5.52252 0.00128174H0L34.5195 58.9191C34.5997 58.8861 34.6758 58.8456 34.7553 58.8134L34.7544 58.8139Z" fill="#D0A32D"/>
</svg>
