<svg width="142" height="142" viewBox="0 0 142 142" fill="none" xmlns="http://www.w3.org/2000/svg">
<circle cx="71" cy="71" r="71" fill="#02E2AC"/>
<path fill-rule="evenodd" clip-rule="evenodd" d="M87.0312 61.7679C89.8953 65.7826 91.4502 70.6577 91.4093 75.5736C91.4093 80.4078 89.8544 85.242 87.0312 89.1746L93.0051 93.722C96.8105 88.4783 98.8971 82.0874 98.8971 75.6148C98.938 68.7732 96.6875 62.0547 92.5551 56.647L89.1291 59.7353L87.0312 61.7679Z" fill="black"/>
<path fill-rule="evenodd" clip-rule="evenodd" d="M98.3244 97.7496L78.2342 82.4691C79.6664 80.5846 80.4847 78.2905 80.6074 75.9145C80.6892 73.5384 80.0754 71.2033 78.8071 69.1958L88.4225 60.511L98.488 51.0886C99.1427 50.4741 99.1836 49.4088 98.5289 48.7534L97.1377 47.3606C89.9774 40.1095 80.3211 35.8898 70.1737 35.5621L70.2146 30.0315C70.2555 29.6628 70.2146 29.2942 70.1328 28.9255C70.0099 28.5568 69.8462 28.229 69.6008 27.9422C69.3554 27.6555 69.0688 27.4506 68.7006 27.2868C68.3732 27.1229 68.005 27.041 67.6369 27.041C67.2685 27.041 66.9003 27.1229 66.5729 27.2868C66.2456 27.4506 65.9184 27.6555 65.6727 27.9422C65.4273 28.229 65.2227 28.5568 65.1409 28.8845C65.0182 29.2532 64.9773 29.6219 65.0591 29.9906L65.0182 35.6851C62.6041 35.9307 60.19 36.3813 57.8577 37.0778L57.8986 29.9906C57.9395 29.6219 57.8986 29.2532 57.8168 28.8845C57.694 28.5158 57.5304 28.1881 57.2848 27.9013C57.0393 27.6145 56.753 27.4097 56.3846 27.2458C56.0574 27.0819 55.6892 27 55.3208 27C54.9527 27 54.5843 27.0819 54.257 27.2458C53.9298 27.4097 53.6023 27.6145 53.3569 27.9013C53.1114 28.1881 52.9067 28.5158 52.8249 28.8435C52.7022 29.2122 52.6613 29.5809 52.7431 29.9496L52.6204 39.0033C44.3551 42.6903 37.5629 49.122 33.4303 57.1925C29.2979 65.2631 27.9885 74.5215 29.7888 83.4112C31.5891 92.3012 36.3764 100.331 43.3322 106.148C50.288 111.965 59.0444 115.243 68.0868 115.406L97.3424 115.529C98.2426 115.529 98.9789 114.792 98.9789 113.891V99.1017C98.9789 98.5691 98.7335 98.0775 98.3244 97.7496ZM68.6597 108.278C61.4583 108.237 54.4616 105.82 48.7741 101.437C43.0868 97.0122 38.9951 90.8264 37.1539 83.8621C35.3127 76.8975 35.8444 69.4826 38.586 62.8459C41.3683 56.2093 46.2372 50.6379 52.4976 47.0327L52.4567 57.807C52.4158 58.1758 52.4567 58.5444 52.5385 58.9132C52.6613 59.2818 52.8249 59.6095 53.0705 59.8963C53.316 60.1831 53.6023 60.388 53.9707 60.5519C54.2979 60.7157 54.6661 60.7975 55.0345 60.7975C55.4026 60.7975 55.771 60.7157 56.0983 60.5519C56.4255 60.388 56.753 60.1831 56.9984 59.8963C57.2438 59.6095 57.4486 59.2818 57.5304 58.9541C57.6531 58.5853 57.694 58.2167 57.6122 57.8481L57.6531 44.6157C61.2538 43.3048 65.0591 42.6903 68.9052 42.6903C75.9837 42.6903 82.8579 45.0255 88.4634 49.2861C88.8727 49.6137 88.9136 50.1873 88.5452 50.5559L73.2423 64.6075C71.8513 64.0339 70.3373 63.7063 68.8234 63.7063C67.1458 63.7063 65.4682 64.0339 63.9133 64.7304C62.3584 65.4269 61.0083 66.4511 59.9036 67.721C58.7987 68.991 57.9804 70.5068 57.4895 72.1045C56.9984 73.7432 56.8757 75.4227 57.1211 77.1025C57.3668 78.7821 57.9395 80.3798 58.8396 81.8137C59.7398 83.2474 60.9674 84.4354 62.3584 85.3778C63.7906 86.2791 65.3864 86.8935 67.064 87.1394C68.7416 87.3851 70.4601 87.2621 72.0558 86.7706L91.614 101.642C91.8186 101.805 91.9413 102.051 91.9413 102.297L91.9004 107.541C91.9004 107.992 91.5322 108.36 91.082 108.36L68.6597 108.278ZM73.4469 75.5048C73.4469 76.406 73.1605 77.3073 72.6696 78.0856C72.1376 78.8641 71.442 79.4377 70.5828 79.8062C69.7235 80.1751 68.7825 80.2569 67.9232 80.0521C67.064 79.8472 66.2047 79.4377 65.55 78.7821C64.8953 78.1267 64.4453 77.3073 64.2817 76.406C64.1178 75.5048 64.1999 74.5626 64.568 73.7432C64.9362 72.8828 65.5091 72.1863 66.2865 71.6539C67.064 71.1623 67.9641 70.8756 68.8643 70.8756C70.0919 70.8756 71.2784 71.3671 72.1376 72.2683C72.956 73.0878 73.4469 74.2347 73.4469 75.5048Z" fill="#0E0333"/>
</svg>
