<svg width="188" height="50" viewBox="0 0 188 50" fill="none" xmlns="http://www.w3.org/2000/svg">
<path d="M145.06 16.3921C150.125 16.3921 155.878 18.4996 156.222 25.2435H149.141C148.994 23.2941 147.322 22.3984 145.109 22.3984C143.044 22.3984 142.11 23.2414 142.11 24.2425C142.11 25.0855 142.7 25.8758 144.568 26.2446L149.043 27.0349C153.518 27.9306 156.468 30.2488 156.468 34.7799C156.468 40.6809 151.502 43.4206 145.306 43.4206C139.061 43.4206 133.996 40.6282 133.505 33.8315L140.585 33.8842C140.93 36.0971 142.651 37.0981 145.158 37.0981C147.273 37.0981 148.551 36.4132 148.551 35.3068C148.551 34.4638 147.814 33.7788 146.24 33.5154L141.421 32.6197C137.291 31.8821 134.439 29.4058 134.439 24.9274C134.439 19.5533 138.717 16.3921 145.06 16.3921ZM115.212 16.4915C117.814 16.4915 119.974 17.2283 121.741 18.4388V17.0704H129.693V42.5962H121.741V41.1752C119.974 42.3857 117.814 43.1225 115.212 43.1225C108.782 43.1225 103.382 37.3858 103.382 29.807C103.382 22.1755 108.782 16.4915 115.212 16.4915ZM68.6345 6.75324L80.5582 25.9028L92.4326 6.75324H98.6408V42.6256H90.314V24.6367L82.874 36.9283V36.981H78.2425V36.9283L70.7532 24.5312L70.8025 42.6256H62.4756V6.75324H68.6345ZM168.814 5.2627V26.6806L177.136 17.1031H186.639L177.579 27.5226L187.427 42.6256H177.875L172.163 33.7848L168.814 37.6264V42.6256H160.838V5.2627H168.814ZM116.783 23.4387C113.543 23.4387 111.187 26.2807 111.187 29.807C111.187 33.3332 113.543 36.1226 116.783 36.1226C118.55 36.1226 120.268 35.5963 121.741 33.7543V25.8597C120.268 24.0176 118.55 23.4387 116.783 23.4387Z" fill="white"/>
<path d="M48.9805 25C48.9805 38.2552 38.2394 49 24.9903 49C11.7412 49 1 38.2552 1 25C1 11.7448 11.7412 1 24.9903 1C38.2394 1 48.9805 11.7448 48.9805 25Z" stroke="white" stroke-width="2"/>
<path fill-rule="evenodd" clip-rule="evenodd" d="M39.9844 18.458V26.8644H16.0354L15.005 26.8646C16.0956 31.9652 20.4237 35.7753 25.5969 35.7753C29.8737 35.7753 33.5729 33.1712 35.3427 29.3865L39.9844 29.3865V36.4478C39.9844 38.1192 38.6977 39.4741 37.1105 39.4741H14.1195C12.5323 39.4741 11.2456 38.1192 11.2456 36.4478V18.458H39.9844ZM32.5863 29.3865C31.0622 31.733 28.5003 33.2728 25.5969 33.2728C22.6934 33.2728 20.1315 31.733 18.6074 29.3865H32.5863ZM19.4681 20.4756C17.2159 20.4756 15.3528 22.2293 15.0429 24.5107L17.4926 24.5107C17.762 23.6326 18.5446 22.9975 19.4681 22.9975C20.3916 22.9975 21.1742 23.6326 21.4436 24.5107L23.8933 24.5107C23.5834 22.2293 21.7203 20.4756 19.4681 20.4756ZM31.7619 20.4756C29.5098 20.4756 27.6466 22.2293 27.3367 24.5107L29.7864 24.5107C30.0558 23.6326 30.8384 22.9975 31.7619 22.9975C32.6854 22.9975 33.4681 23.6326 33.7374 24.5107L36.1871 24.5107C35.8773 22.2293 34.0141 20.4756 31.7619 20.4756ZM37.1105 9.21094C38.6977 9.21094 39.9844 10.5659 39.9844 12.2373V15.9361H11.2456V12.2373C11.2456 10.5659 12.5323 9.21094 14.1195 9.21094H37.1105Z" fill="white"/>
</svg>
