<svg width="925" height="50" viewBox="0 0 925 50" fill="none" xmlns="http://www.w3.org/2000/svg">
<path d="M376.091 41.623V33.5079L376.798 33.377C380.253 32.6702 382.531 31.0471 383.839 28.3508C384.808 26.3874 384.86 23.5864 383.944 21.5183C383.054 19.4764 380.75 17.4346 378.552 16.7539C377.609 16.466 376.733 16.0995 376.524 16.0995C376.209 16.0995 376.091 14.8691 376.091 7.98429C376.091 3.4555 376.222 0 376.091 0C375.62 0 373.839 0.366492 373.185 0.811518C372.819 1.0733 371.824 2.43456 370.986 3.82199C366.693 11.0209 361.876 15.7592 354.415 20.1571C352.321 21.3874 351.719 22.0681 351.195 23.7696C350.908 24.7382 350.934 25.0785 351.3 26.2565C351.798 27.801 352.531 28.6126 354.494 29.712C357.295 31.2827 361.195 34.11 363.368 36.1518C365.724 38.3508 368.709 42.0942 370.436 45.0262C370.986 45.9686 371.745 47.1728 372.086 47.6963C372.766 48.6911 374.494 49.7382 375.515 49.7382H376.091V41.623ZM373.106 32.6963C369.389 31.3089 367.007 27.2513 367.714 23.5079C368.421 19.8691 371.379 16.9895 374.808 16.5707L376.091 16.4136V24.8429V33.2461H375.305C374.887 33.2461 373.892 33.0105 373.106 32.6963Z" fill="#FF9B53"/>
<path d="M376.131 8.11518V16.2304L375.424 16.3613C371.969 17.0681 369.691 18.6911 368.382 21.3874C367.414 23.3508 367.361 26.1518 368.278 28.2199C369.168 30.2618 371.471 32.3037 373.67 32.9843C374.613 33.2723 375.555 33.5079 375.764 33.5079C376.079 33.5079 376.131 34.8691 376.131 41.7539C376.131 46.2827 376.236 50 376.367 50C376.838 50 378.382 49.3717 379.037 48.9267C379.403 48.6649 380.398 47.3037 381.236 45.9162C385.529 38.7173 390.346 33.9791 397.806 29.5812C399.901 28.3508 400.503 27.6702 401.026 25.9686C401.314 25 401.288 24.6597 400.921 23.4817C400.424 21.9372 399.691 21.1257 397.728 20.0262C394.927 18.4555 391.026 15.6283 388.853 13.5864C386.497 11.3874 383.513 7.64398 381.785 4.71204C381.236 3.76963 380.476 2.56544 380.136 2.04188C379.456 1.04712 377.728 -1.57952e-06 376.707 -1.57952e-06H376.131V8.11518ZM379.115 17.0419C382.832 18.4293 385.215 22.4869 384.508 26.2304C383.801 29.8691 380.843 32.7487 377.414 33.1675L376.131 33.3246V24.8953V16.4921H376.916C377.335 16.4921 378.33 16.7277 379.115 17.0419Z" fill="#FF1200"/>
<path d="M543.487 9.16249C542.414 9.81694 541.838 10.9426 541.838 12.3562C541.838 16.0735 546.681 17.3039 548.644 14.084C549.639 12.4609 549.089 10.1573 547.466 9.16249C546.366 8.48186 544.586 8.48186 543.487 9.16249Z" fill="black"/>
<path d="M430.267 10.4974C427.937 10.7591 426.236 11.3351 424.377 12.5392C421.733 14.2408 419.796 17.0419 418.932 20.3926C418.382 22.5392 418.382 27.068 418.932 29.1885C420.188 34.0837 423.67 37.644 428.382 38.8481C430.267 39.3193 433.853 39.3979 435.869 38.979C439.272 38.2722 442.78 35.7591 444.194 32.9843C444.874 31.623 445.555 29.7905 445.398 29.6597C445.293 29.5549 439.848 28.534 439.377 28.534C439.22 28.534 438.879 29.0576 438.618 29.6858C438.094 30.9424 436.654 32.5392 435.424 33.1937C434.9 33.4816 433.984 33.6387 432.544 33.6387C429.194 33.6387 427.361 32.4607 425.895 29.3193C425.267 28.0104 425.215 27.5654 425.215 24.7382C425.215 21.8324 425.267 21.4921 425.921 20.2618C426.942 18.3246 427.806 17.4084 429.325 16.6492C430.843 15.89 432.806 15.7591 434.56 16.2827C436.026 16.7015 437.728 18.3246 438.408 19.8953C438.722 20.6021 439.063 21.2042 439.167 21.2042C439.639 21.2042 445.084 20.157 445.188 20.0262C445.476 19.7644 444.586 17.4084 443.67 15.9947C441.026 11.911 436.131 9.89526 430.267 10.4974Z" fill="black"/>
<path d="M455.581 18.4032C451.366 19.4765 448.801 22.4347 448.068 27.042C447.335 31.9111 449.612 36.4661 453.827 38.4294C455.188 39.0839 455.607 39.1362 458.461 39.1362C461.314 39.1362 461.733 39.0839 463.094 38.4294C464.796 37.6441 466.681 35.864 467.466 34.3457C468.094 33.0891 468.33 33.2462 464.665 32.5656L462.256 32.1467L461.681 32.8535C459.9 35.1048 455.843 34.5813 454.455 31.9373L453.853 30.7593L461.052 30.6807L468.277 30.6284L468.461 29.8954C468.749 28.6912 468.094 25.131 467.23 23.3771C466.236 21.3614 464.325 19.6074 462.309 18.8483C460.476 18.1415 457.387 17.9582 455.581 18.4032ZM460.058 23.2985C461.183 23.8483 461.759 24.5027 462.099 25.576L462.283 26.1781H458.225C455.974 26.1781 454.141 26.1258 454.141 26.0472C454.141 25.6807 454.927 24.4242 455.503 23.9006C456.785 22.6964 458.356 22.487 460.058 23.2985Z" fill="black"/>
<path d="M481.811 18.3509C480.555 18.6389 479.167 19.5813 478.33 20.7069L477.701 21.5708V20.0787V18.5865H474.56H471.419V28.7959V39.0054H474.56H477.701V33.5603C477.701 30.419 477.832 27.6965 477.989 27.0944C478.146 26.5185 478.722 25.6284 479.246 25.1048C480.293 24.0315 481.628 23.5603 483.539 23.5603H484.769V20.8117V18.063L483.801 18.0891C483.251 18.1153 482.361 18.22 481.811 18.3509Z" fill="black"/>
<path d="M492.152 18.4553C489.482 19.2144 487.152 21.2563 486.393 23.5338C486.209 24.0312 486.105 24.45 486.157 24.5024C486.236 24.6071 490.843 25.3924 491.34 25.3924C491.576 25.3924 491.89 25.1045 492.047 24.738C492.44 23.9003 493.853 23.0364 494.848 23.0364C495.895 23.0364 497.283 23.9265 497.623 24.7903C498.068 25.9422 497.78 26.1778 495.974 26.1778C492.361 26.204 488.801 27.4081 487.152 29.1882C484.613 31.9369 485.267 36.3087 488.539 38.3505C489.586 38.9788 490.162 39.1359 491.733 39.2144C493.984 39.3453 495.11 39.005 496.681 37.8008L497.859 36.9108V37.9579V39.005H501.026H504.168L504.089 31.4657L504.01 23.9526L503.251 22.4343C502.44 20.7327 500.895 19.4238 498.906 18.717C497.23 18.0888 493.853 17.9841 492.152 18.4553ZM497.649 31.1516C497.492 33.1411 495.921 34.6856 494.063 34.6856C491.34 34.6856 491 31.8846 493.618 30.8636C494.403 30.5495 496.733 30.1307 497.335 30.2092C497.623 30.2354 497.702 30.5233 497.649 31.1516Z" fill="black"/>
<path d="M517.754 18.2983C516.576 18.6648 515.345 19.3977 514.717 20.0784L514.089 20.759V19.6595V18.5862H510.817H507.544V28.7956V39.0312L510.764 38.9527L513.958 38.8742L514.089 32.3297C514.194 26.4658 514.272 25.7066 514.717 25.0522C515.372 24.0836 515.921 23.8218 517.309 23.8218C518.67 23.8218 519.508 24.5548 519.874 26.0993C520.005 26.6491 520.11 29.7642 520.11 33.0365V39.0051H523.251H526.393V32.7747C526.393 27.2511 526.471 26.4396 526.89 25.471C527.492 24.1883 528.068 23.8218 529.482 23.8218C530.948 23.8218 531.785 24.5548 532.126 26.204C532.283 26.9108 532.414 30.1045 532.414 33.2459V39.0051H535.555H538.696V32.2511C538.696 28.4815 538.565 24.8166 538.408 23.9527C537.754 20.3402 535.764 18.4815 532.335 18.1412C529.953 17.9318 527.989 18.56 526.393 20.0522L525.136 21.2302L524.56 20.4187C523.644 19.136 521.916 18.2721 520.031 18.1674C519.141 18.115 518.12 18.1674 517.754 18.2983Z" fill="black"/>
<path d="M559.456 18.4556C556.236 19.3457 554.298 20.9163 552.911 23.7697C551.942 25.7331 551.916 25.8116 551.916 28.7959C551.916 31.6755 551.969 31.9111 552.754 33.5341C553.775 35.6284 555.66 37.4608 557.754 38.4294C559.089 39.0577 559.534 39.1362 562.257 39.1362C565.084 39.1362 565.372 39.0839 567.021 38.2985C569.115 37.3299 570.712 35.7854 571.576 33.953C572.309 32.3299 572.361 31.754 571.759 31.5708C571.026 31.3614 566.393 30.6022 566.34 30.6807C565.372 32.8797 564.377 33.7697 562.728 33.953C561.052 34.1362 559.796 33.4818 558.906 31.9635C558.304 30.9425 558.199 30.4713 558.199 28.7959C558.199 25.0786 560.267 22.9582 563.251 23.5865C564.272 23.7959 565.817 25.1834 566.026 26.0734C566.236 26.8326 566.262 26.8326 569.586 26.2566C572.623 25.7593 572.675 25.6546 571.524 23.3509C570.66 21.597 568.356 19.5289 566.445 18.8221C564.56 18.1153 561.288 17.932 559.456 18.4556Z" fill="black"/>
<path d="M542.361 28.7959V39.0054H545.503H548.644V28.7959V18.5865H545.503H542.361V28.7959Z" fill="black"/>
<path fill-rule="evenodd" clip-rule="evenodd" d="M764.808 0.0237502C764.601 0.0528097 764.01 0.136606 763.493 0.210132C760.458 0.642015 757.394 1.91449 755.237 3.63927C754.05 4.58896 751.817 6.99226 751.983 7.14244C752.01 7.16674 752.903 7.75244 753.967 8.44398L755.902 9.70142L756.959 8.578C758.205 7.25517 759.198 6.51653 760.632 5.84604C762.737 4.86152 765.254 4.49164 768.296 4.71973C771.921 4.99141 774.815 6.10181 776.548 7.88596C778.593 9.99139 779.075 13.4141 777.706 16.1173C776.692 18.1206 774.5 19.6981 771.673 20.4601C770.474 20.7831 770.337 20.7922 765.967 20.8401L761.489 20.8891V23.3844V25.8799L765.842 25.8824C771.505 25.8857 772.778 26.0718 775.205 27.2513C777.533 28.3834 779.139 30.1252 779.854 32.294C780.152 33.1962 780.197 33.5383 780.202 34.8983C780.208 36.6953 780.016 37.5788 779.316 38.9692C777.873 41.8343 775.154 43.6913 771.131 44.5595C770.008 44.8017 769.439 44.8432 767.188 44.8467C764.192 44.8515 763.117 44.7022 760.826 43.9631C758.334 43.1591 756.335 42.0192 754.365 40.2784C753.745 39.7305 753.21 39.2823 753.175 39.2823C753.141 39.2823 752.363 40.1074 751.448 41.1158L749.784 42.9493L750.344 43.4501C753.829 46.565 757.758 48.5724 762.214 49.5158C763.708 49.8319 764.011 49.8529 767.125 49.8576C770.293 49.8623 770.519 49.8466 772.073 49.514C775.627 48.7531 778.2 47.5889 780.591 45.6605C783.095 43.6402 784.75 40.8208 785.291 37.654C785.485 36.5165 785.487 34.0323 785.294 32.8316C784.614 28.5998 782.141 25.2507 778.429 23.5356L777.489 23.1012L778.038 22.7769C780.806 21.142 782.731 18.5279 783.336 15.5828C783.577 14.4083 783.587 12.2584 783.357 10.9683C782.172 4.3248 776.157 0.203618 767.376 0.0174875C766.17 -0.00806476 765.015 -0.00530922 764.808 0.0237502ZM679.826 0.455258C675.792 0.875868 672.822 2.19432 670.335 4.66863C667.818 7.17275 666.545 10.7478 666.917 14.2624C667.059 15.5965 667.163 16.0083 667.664 17.2238C668.741 19.8363 670.759 21.8459 673.872 23.4057C676.506 24.7259 678.685 25.4435 686.292 27.4956C689.839 28.4523 692.614 29.5538 694.017 30.5619C694.964 31.2429 695.443 31.7436 696.025 32.6653C697.372 34.796 697.492 37.5608 696.336 39.8407C694.851 42.7668 692.274 44.3899 688.062 45.0505C686.647 45.2723 683.235 45.1427 681.536 44.8025C677.804 44.0553 674.153 42.0542 671.541 39.325C670.228 37.952 670.3 38.1637 670.3 35.6956V33.5205H668.045H665.791V41.4743V49.4281H668.045H670.3V47.0874V44.7467L670.644 45.0555C676.237 50.0676 687.819 51.5641 694.788 48.1749C698.22 46.506 700.58 43.8336 701.73 40.3156C702.237 38.7621 702.413 37.4079 702.332 35.6663C702.143 31.6268 700.237 28.4648 696.542 26.0609C693.799 24.2767 690.267 22.9413 684.008 21.3222C679.573 20.1749 678.396 19.7933 676.626 18.9278C674.421 17.8502 672.999 16.5181 672.415 14.9826C672.08 14.1026 671.968 12.4842 672.179 11.5864C672.84 8.78179 675.573 6.52305 679.381 5.63435C680.781 5.30756 684.436 5.30643 685.934 5.63222C689.322 6.36898 692.564 8.01222 695.175 10.3154L696.291 11.3001L696.369 12.2332C696.412 12.7465 696.454 13.9415 696.463 14.8887L696.479 16.6109H698.671H700.863V8.9703V1.32967H698.671H696.479V3.08326C696.479 4.04773 696.446 4.83685 696.405 4.83685C696.364 4.83685 695.814 4.49202 695.184 4.07053C692.821 2.48992 689.707 1.2346 686.819 0.697879C685.195 0.396137 681.591 0.271131 679.826 0.455258ZM723.039 0.463776C719.245 0.829023 716.046 2.22751 713.684 4.55214C712.182 6.03167 711.2 7.6729 710.553 9.78447C710.232 10.8315 710.208 11.068 710.208 13.1038C710.207 15.1721 710.227 15.3522 710.553 16.2978C711.515 19.0826 713.364 21.2468 716.199 22.9064C718.604 24.3141 722.19 25.5457 729.548 27.4906C732.508 28.2732 735.84 29.5553 737.027 30.369C738.465 31.3551 739.477 32.6856 740.019 34.3016C741.118 37.5843 739.507 41.452 736.227 43.4004C733.177 45.2122 728.454 45.6693 723.839 44.5991C720.438 43.8103 716.052 41.088 713.994 38.4882L713.514 37.882V35.6386V33.3953H711.322H709.13V41.4117V49.4281H711.322H713.514V47.1195V44.8109L714.673 45.6758C718.772 48.7354 724.635 50.3025 730.612 49.9362C735.685 49.6255 739.296 48.1432 742.03 45.2491C744.387 42.7534 745.583 39.7228 745.579 36.2565C745.576 33.7269 745.004 31.7619 743.707 29.8255C741.146 26.0008 736.196 23.4997 726.479 21.1195C721.272 19.8442 718.117 18.4085 716.656 16.6494C715.599 15.3769 715.12 13.6431 715.374 12.0084C715.833 9.05385 718.385 6.746 722.345 5.70237C723.759 5.32998 726.653 5.24042 728.358 5.51624C732.253 6.14665 736.075 8.03664 738.848 10.7033L739.694 11.5165V14.0666V16.6167L741.917 16.5825L744.14 16.5483V8.9703V1.3923L741.917 1.35811L739.694 1.32391V3.08038C739.694 4.04648 739.667 4.83685 739.635 4.83685C739.602 4.83685 739.052 4.49277 738.413 4.07216C733.916 1.1126 728.792 -0.0899824 723.039 0.463776ZM619.069 3.33377V5.8389H621.511H623.954V25.7546V45.6704H621.324H618.693V47.7371V49.8038H626.459H634.225V47.7371V45.6704H631.72H629.215V36.6503V27.6301L633.427 27.6632L637.639 27.6961L642.312 34.8983C644.882 38.8596 647.492 42.8897 648.113 43.8542L649.241 45.6078L646.618 45.6416L643.996 45.6754V47.7396V49.8038H652.325H660.655V47.7371V45.6704H658.021H655.386L651.225 39.3795C648.937 35.9196 646.243 31.8472 645.239 30.3298L643.415 27.5709L644.641 27.4859C647.92 27.2587 651.003 25.8123 653.39 23.3813C655.611 21.119 656.814 17.8977 656.806 14.2311C656.801 11.8992 656.374 10.0448 655.381 8.04466C653.428 4.11136 649.953 1.71095 645.123 0.957536C644.613 0.877998 639.593 0.83015 631.689 0.829649L619.069 0.828647V3.33377ZM643.921 5.7184C644.397 5.78717 645.273 6.00662 645.869 6.20615C649.527 7.43191 651.566 10.292 651.544 14.1684C651.53 16.5514 650.696 18.5902 648.982 20.4287C648.021 21.4605 647.122 21.9947 645.663 22.401C644.716 22.6649 644.438 22.6751 636.95 22.7188L629.215 22.764V14.1762V5.58838L636.135 5.59089C640.065 5.59227 643.43 5.64738 643.921 5.7184Z" fill="black"/>
<rect x="602" y="22.4165" width="12.5596" height="5.16693" fill="#0B70FF"/>
<rect x="789.599" y="22.4165" width="12.5596" height="5.16693" fill="#0B70FF"/>
<g clip-path="url(#clip0_19_60)">
<path fill-rule="evenodd" clip-rule="evenodd" d="M40.0373 27.1894L57.0419 44.7919C57.2462 45.0002 57.4087 45.2481 57.5202 45.5215C57.6317 45.7948 57.6902 46.0883 57.6923 46.385C57.6942 46.6817 57.6398 46.976 57.5317 47.251C57.4238 47.526 57.2648 47.7762 57.0635 47.9875L55.8158 49.2746C55.465 49.655 55.0019 49.9033 54.4994 49.9802C54.1677 50.0262 53.8302 49.9919 53.5133 49.8802C53.1963 49.7687 52.9088 49.5825 52.6729 49.3367L31.9081 27.8419C31.5471 27.4688 31.2608 27.0258 31.0652 26.5379C30.8698 26.0502 30.7692 25.5273 30.7692 24.9992C30.7692 24.4712 30.8698 23.9483 31.0652 23.4604C31.2608 22.9727 31.5471 22.5294 31.9081 22.1563L52.6729 0.661658C52.8752 0.451906 53.1154 0.285498 53.38 0.171963C53.6444 0.0584279 53.9279 0 54.2142 0C54.5006 0 54.784 0.0584279 55.0487 0.171963C55.3131 0.285498 55.5535 0.451906 55.7558 0.661658L57.0419 2.01535C57.2446 2.22475 57.4054 2.47346 57.515 2.74723C57.6246 3.02102 57.6812 3.3145 57.6812 3.6109C57.6812 3.90729 57.6246 4.20077 57.515 4.47456C57.4054 4.74835 57.2446 4.99708 57.0419 5.2065L40.0373 22.8133C39.4796 23.3952 39.1667 24.1817 39.1667 25.0013C39.1667 25.8212 39.4796 26.6075 40.0373 27.1894ZM17.6542 22.8319L0.656198 5.22496C0.44994 5.0164 0.285729 4.76752 0.17309 4.49273C0.0604508 4.21794 0.00162815 3.92273 3.33214e-05 3.62421C-0.00156151 3.32569 0.0541073 3.02981 0.163803 2.75373C0.273498 2.47767 0.435048 2.22692 0.639063 2.01602L1.88198 0.724446C2.23592 0.346452 2.69948 0.098649 3.20204 0.018761C3.53363 -0.0257258 3.87067 0.00915516 4.18719 0.120727C4.50373 0.232298 4.79133 0.417563 5.02785 0.662304L25.7846 22.1573C26.1456 22.5304 26.4317 22.9737 26.6271 23.4613C26.8225 23.9492 26.9231 24.4721 26.9231 25.0002C26.9231 25.5283 26.8225 26.0512 26.6271 26.5388C26.4317 27.0267 26.1456 27.4698 25.7846 27.8429L5.02785 49.3379C4.82525 49.5479 4.58471 49.7144 4.31998 49.8279C4.05523 49.9415 3.77148 50 3.4849 50C3.19835 50 2.91458 49.9415 2.64985 49.8279C2.3851 49.7144 2.14456 49.5479 1.94198 49.3379L0.656198 48.0065C0.453517 47.7967 0.292738 47.5475 0.183043 47.2735C0.0733481 46.9992 0.0168929 46.7054 0.0168929 46.4087C0.0168929 46.1119 0.0733481 45.8181 0.183043 45.5438C0.292738 45.2696 0.453517 45.0206 0.656198 44.8108L17.6542 27.2083C18.2117 26.6263 18.5245 25.8398 18.5245 25.02C18.5245 24.2004 18.2117 23.4138 17.6542 22.8319Z" fill="white"/>
<path fill-rule="evenodd" clip-rule="evenodd" d="M144.812 21.671C143.538 20.8391 142.045 20.4052 140.523 20.4248C139.282 20.405 138.057 20.7081 136.968 21.3044C136.274 21.6721 135.653 22.1641 135.135 22.7556V11.9946H131.104V38.3846H135.135V36.4671C135.647 37.0471 136.254 37.5348 136.932 37.9083C138.04 38.4841 139.275 38.7739 140.523 38.7512C142.04 38.7719 143.53 38.3517 144.812 37.5417C146.098 36.7442 147.148 35.6183 147.854 34.2796C148.62 32.8491 149.011 31.2475 148.99 29.6246C149.017 28.0012 148.626 26.3983 147.854 24.9698C147.156 23.6156 146.105 22.4758 144.812 21.671ZM144.189 32.3737C143.791 33.16 143.181 33.8198 142.429 34.2796C141.652 34.7335 140.764 34.9642 139.864 34.946C138.952 34.9612 138.053 34.7312 137.261 34.2796C136.509 33.8208 135.899 33.1606 135.502 32.3737C135.073 31.5091 134.859 30.5533 134.879 29.5881C134.859 28.6229 135.073 27.6671 135.502 26.8023C135.893 26.021 136.505 25.3712 137.261 24.9331C138.046 24.461 138.948 24.2194 139.864 24.2367C140.768 24.2166 141.659 24.4583 142.429 24.9331C143.185 25.3721 143.796 26.0216 144.189 26.8023C144.643 27.6594 144.873 28.6181 144.855 29.5881C144.873 30.5581 144.643 31.5166 144.189 32.3737ZM101.072 34.7194C102.636 34.7194 103.955 34.4873 105.03 34.0229C106.085 33.5635 107.032 32.8881 107.809 32.0404L110.668 34.8992C109.486 36.1027 108.079 37.0617 106.526 37.7215C104.938 38.4058 103.118 38.7479 101.065 38.7479C99.295 38.7642 97.5392 38.4279 95.9004 37.7583C94.3541 37.0962 92.9548 36.1329 91.7844 34.9248C90.6141 33.7166 89.6956 32.2875 89.0829 30.721C88.4419 29.075 88.1187 27.3225 88.13 25.5562C88.1169 23.8002 88.4416 22.0581 89.0864 20.4248C89.6954 18.8512 90.6169 17.4174 91.7952 16.2097C92.9989 14.9714 94.4421 13.9915 96.0371 13.3298C97.6321 12.6681 99.3452 12.3385 101.072 12.3611C103.15 12.36 104.945 12.7043 106.456 13.3941C107.959 14.0675 109.327 15.0092 110.492 16.173L107.633 19.032C106.857 18.1887 105.906 17.5256 104.847 17.0894C103.774 16.6251 102.516 16.3929 101.072 16.3929C99.8783 16.3802 98.6943 16.6068 97.5898 17.0594C96.5491 17.4901 95.6119 18.1376 94.8408 18.9586C94.0656 19.795 93.4681 20.7802 93.0848 21.8542C92.6589 23.0414 92.4479 24.295 92.4618 25.5562C92.4475 26.815 92.6575 28.0662 93.0816 29.2514C93.4712 30.3342 94.0689 31.3302 94.8408 32.1837C95.6196 32.9883 96.5552 33.6244 97.5898 34.0529C98.6943 34.5056 99.8783 34.7321 101.072 34.7194ZM115.165 20.791L119.671 32.2535L124.438 20.791H128.91L120.736 38.5677L117.474 45.715H113.002L117.419 36.615L110.73 20.791H115.165ZM160.311 20.4217C161.953 20.4208 163.396 20.7994 164.643 21.5581C165.895 22.3025 166.918 23.3783 167.598 24.6669C168.347 26.0498 168.726 27.6027 168.698 29.1752C168.697 29.4821 168.673 29.7885 168.624 30.0916C168.595 30.4239 168.546 30.7544 168.478 31.0812H155.354C155.459 31.5271 155.62 31.9583 155.833 32.364C156.256 33.1777 156.905 33.8521 157.702 34.3066C158.559 34.761 159.518 34.9904 160.488 34.9731C161.344 34.9839 162.194 34.8219 162.987 34.4965C163.747 34.1948 164.425 33.7175 164.966 33.1037L167.532 35.706C166.688 36.6998 165.62 37.4787 164.416 37.9785C163.186 38.4935 161.864 38.7554 160.531 38.7483C158.869 38.7741 157.228 38.3723 155.766 37.5819C154.356 36.7842 153.189 35.6194 152.389 34.2114C151.589 32.8031 151.185 31.2042 151.221 29.585C151.202 28.3827 151.424 27.1889 151.873 26.0735C152.323 24.9581 152.99 23.9437 153.837 23.09C154.684 22.2364 155.693 21.5606 156.805 21.1023C157.916 20.6442 159.108 20.4127 160.311 20.4217ZM157.572 24.7835C156.816 25.2225 156.205 25.8721 155.813 26.6529L155.809 26.6562C155.622 27.0129 155.479 27.3912 155.383 27.7823H164.744C164.65 27.3 164.494 26.8317 164.279 26.3896C163.936 25.6814 163.387 25.0937 162.703 24.7035C162.045 24.3125 161.226 24.1171 160.248 24.1171C159.312 24.0962 158.388 24.3264 157.572 24.7835ZM182.939 20.9012C182.188 20.5744 181.376 20.4121 180.557 20.4246C178.558 20.4246 177.055 21.1212 176.049 22.5139C176.033 22.5358 176.018 22.5583 176.003 22.581L175.975 22.6221V20.7896H171.943V38.3846H175.975V28.5983C175.975 27.0833 176.342 25.9725 177.075 25.2662C177.808 24.5598 178.737 24.2054 179.861 24.2033C180.322 24.1946 180.782 24.2691 181.217 24.4231C181.624 24.5804 181.988 24.8316 182.28 25.1562L184.927 22.4406C184.386 21.7867 183.708 21.261 182.939 20.9012ZM199.719 34.7194C201.285 34.7194 202.604 34.4871 203.679 34.0229C204.735 33.5639 205.683 32.8885 206.46 32.0404L209.319 34.8992C208.137 36.1027 206.731 37.0615 205.177 37.7215C203.588 38.4058 201.769 38.7479 199.715 38.7479C197.946 38.7642 196.19 38.4277 194.552 37.7583C193.006 37.0962 191.606 36.1329 190.436 34.9246C189.265 33.7166 188.347 32.2875 187.734 30.7208C187.093 29.075 186.77 27.3225 186.781 25.5562C186.767 23.8004 187.091 22.0583 187.734 20.4246C188.344 18.8509 189.267 17.4171 190.447 16.2096C191.65 14.9718 193.092 13.9921 194.687 13.3304C196.281 12.6687 197.994 12.3389 199.719 12.3611C201.796 12.36 203.592 12.7043 205.108 13.394C206.61 14.0678 207.975 15.0095 209.14 16.173L206.281 19.0319C205.506 18.1887 204.554 17.5256 203.494 17.0893C202.421 16.625 201.163 16.3929 199.719 16.3929C198.527 16.3801 197.342 16.6067 196.238 17.0593C195.196 17.4901 194.26 18.1375 193.488 18.9586C192.712 19.7948 192.114 20.7798 191.729 21.8542C191.303 23.0414 191.092 24.295 191.106 25.5562C191.093 26.815 191.304 28.0664 191.729 29.2514C192.119 30.3341 192.717 31.3302 193.488 32.1837C194.267 32.9883 195.204 33.6244 196.238 34.0529C197.342 34.5056 198.527 34.7321 199.719 34.7194ZM224.788 21.6344C223.362 20.8191 221.74 20.4014 220.096 20.425C218.46 20.4048 216.85 20.836 215.442 21.6712C214.071 22.4569 212.925 23.5798 212.11 24.9333C211.292 26.3348 210.873 27.9327 210.896 29.5548C210.877 31.1867 211.294 32.7942 212.106 34.2098C212.919 35.5833 214.065 36.7294 215.438 37.5417C216.487 38.16 217.646 38.5644 218.85 38.7314C220.056 38.8985 221.281 38.8248 222.458 38.515C223.633 38.2052 224.737 37.665 225.702 36.926C226.667 36.1871 227.477 35.2639 228.085 34.2098C228.919 32.8021 229.352 31.1917 229.333 29.5548C229.356 27.9294 228.925 26.33 228.087 24.9366C227.3 23.5621 226.162 22.4223 224.788 21.6344ZM224.533 32.2971C224.127 33.091 223.504 33.7523 222.737 34.2031C221.931 34.6571 221.021 34.8873 220.096 34.8694C219.175 34.8816 218.263 34.6517 217.458 34.2031C216.7 33.7387 216.081 33.0808 215.662 32.2971C215.235 31.4446 215.021 30.5014 215.038 29.5481C215.019 28.6064 215.233 27.6742 215.662 26.8358C216.083 26.0731 216.704 25.4394 217.458 25.0033C218.258 24.5339 219.169 24.2929 220.096 24.3067C221.025 24.2869 221.938 24.5283 222.737 25.0033C223.49 25.44 224.11 26.0735 224.533 26.8358C224.987 27.6666 225.215 28.6016 225.198 29.5481C225.213 30.5073 224.985 31.4546 224.533 32.3004V32.2971ZM241.96 20.4248C243.208 20.4041 244.435 20.7617 245.477 21.4512C246.494 22.0987 247.331 22.9956 247.904 24.0567C248.473 25.0619 248.771 26.1973 248.769 27.3523V38.3848H244.738V28.2319C244.738 27.0602 244.362 26.095 243.608 25.3364C242.875 24.5789 241.923 24.2 240.75 24.2C240.021 24.1873 239.3 24.3642 238.66 24.7133C238.06 25.0464 237.563 25.5416 237.231 26.1427C236.881 26.7829 236.704 27.5029 236.717 28.2319V38.3848H232.687V20.7914H236.717V22.7823C237.2 22.2021 237.785 21.7139 238.44 21.3412C239.51 20.7252 240.725 20.4087 241.96 20.4248ZM265.665 21.4512C264.623 20.7617 263.396 20.4041 262.146 20.4248C260.912 20.4087 259.696 20.7252 258.627 21.3412C257.969 21.7135 257.385 22.2016 256.9 22.7823V20.7914H252.867V38.3848H256.9V28.2319C256.887 27.5029 257.063 26.7829 257.413 26.1427C257.746 25.5416 258.24 25.0464 258.842 24.7133C259.483 24.3642 260.202 24.1873 260.931 24.2C262.104 24.2 263.058 24.5789 263.79 25.3364C264.55 26.0939 264.927 27.0591 264.927 28.2319V38.3848H268.958V27.3523C268.956 26.195 268.654 25.0583 268.079 24.0535C267.508 22.995 266.677 22.0992 265.665 21.4512ZM281.01 20.4217C282.65 20.4208 284.094 20.7994 285.34 21.5581C286.592 22.3035 287.615 23.3791 288.296 24.6669C289.046 26.0498 289.425 27.6027 289.396 29.1752C289.394 29.4821 289.369 29.7883 289.323 30.0916C289.292 30.4239 289.244 30.7542 289.177 31.0812H276.052C276.158 31.5271 276.317 31.9583 276.531 32.364C276.954 33.1777 277.604 33.8521 278.4 34.3066C279.258 34.7612 280.215 34.9906 281.187 34.9731C282.042 34.9837 282.892 34.8215 283.685 34.4965C284.444 34.194 285.123 33.7169 285.663 33.1037L288.229 35.706C287.385 36.6991 286.317 37.4779 285.113 37.9785C283.885 38.4933 282.563 38.755 281.229 38.7483C279.567 38.7742 277.927 38.3727 276.463 37.5819C275.054 36.7842 273.888 35.6194 273.087 34.2114C272.287 32.8031 271.883 31.2042 271.919 29.585C271.9 28.3827 272.123 27.1889 272.571 26.0735C273.021 24.9581 273.688 23.9437 274.535 23.09C275.383 22.2364 276.39 21.5606 277.504 21.1023C278.615 20.6442 279.808 20.4127 281.01 20.4217ZM278.271 24.7835C277.513 25.2216 276.902 25.8714 276.512 26.6529L276.508 26.6562C276.321 27.0127 276.177 27.391 276.083 27.7823H285.44C285.348 27.2998 285.192 26.8316 284.977 26.3896C284.635 25.6817 284.085 25.0942 283.402 24.7035C282.74 24.3125 281.923 24.1171 280.946 24.1171C280.01 24.096 279.087 24.3262 278.271 24.7835ZM298.065 25.0066C298.877 24.5339 299.802 24.2929 300.742 24.31C301.548 24.3 302.348 24.4625 303.087 24.7866C303.813 25.0748 304.458 25.5412 304.956 26.1427L307.596 23.4671C306.769 22.4914 305.725 21.7231 304.548 21.2246C303.352 20.6817 302.05 20.4066 300.737 20.4183C299.081 20.3975 297.45 20.8148 296.008 21.6277C294.635 22.4146 293.496 23.5533 292.71 24.9266C291.89 26.3396 291.473 27.9489 291.5 29.5814C291.479 31.2133 291.896 32.821 292.71 34.2364C293.496 35.6096 294.635 36.7483 296.008 37.5352C297.306 38.2469 298.75 38.6562 300.229 38.7323C301.708 38.8085 303.185 38.5496 304.548 37.975C305.721 37.4558 306.76 36.679 307.59 35.7025L304.952 33.0267C304.446 33.6316 303.806 34.1087 303.083 34.4196C302.337 34.7196 301.54 34.8692 300.737 34.8594C299.802 34.8746 298.879 34.6448 298.062 34.1931C297.31 33.736 296.692 33.0917 296.265 32.3237C295.838 31.4712 295.625 30.5279 295.642 29.5748C295.619 28.621 295.833 27.6764 296.265 26.8258C296.688 26.0673 297.312 25.4385 298.065 25.0066ZM316.923 20.7917H321.137V24.4569H316.923V38.385H312.89V24.4569H308.675V20.7917H312.89V13.4611H316.923V20.7917Z" fill="white"/>
</g>
<g clip-path="url(#clip1_19_60)">
<path d="M843.538 0H832L846.423 25L832 50H843.538L857.962 25L843.538 0Z" fill="#1C68F3"/>
<path d="M871.423 0H881.038V50H871.423V0Z" fill="white"/>
<path fill-rule="evenodd" clip-rule="evenodd" d="M885.846 0V50H899.308C913.115 50 924.308 38.8077 924.308 25C924.308 11.1923 913.115 0 899.308 0H885.846ZM895.462 40.3846H899.308C907.805 40.3846 914.692 33.4968 914.692 25C914.692 16.5032 907.805 9.61538 899.308 9.61538H895.462V40.3846Z" fill="white"/>
<path d="M857 40.3848H866.615V50.0002H857V40.3848Z" fill="#1C68F3"/>
</g>
<defs>
<clipPath id="clip0_19_60">
<rect width="321.154" height="50" fill="white"/>
</clipPath>
<clipPath id="clip1_19_60">
<rect width="92.3077" height="50" fill="white" transform="translate(832)"/>
</clipPath>
</defs>
</svg>
