<svg width="916" height="100" viewBox="0 0 916 100" fill="none" xmlns="http://www.w3.org/2000/svg">
<path d="M395.183 11.8934C397.477 10.7697 400.123 10.2866 402.721 10.3621C404.489 10.3078 406.254 10.5442 407.929 11.06C410.7 11.9481 413.039 14.2072 413.349 16.9194C413.433 17.7171 413.433 18.5202 413.349 19.3179C413.151 21.0001 412.058 22.6017 410.412 23.4207C408.766 24.2397 406.881 24.5366 405.037 24.4832C406.327 22.383 407.261 20.0184 407.159 17.5822C407.253 15.9376 406.812 14.2124 405.656 12.9142C405.221 12.4295 404.678 12.0337 404.062 11.7526C403.447 11.4715 402.773 11.3113 402.085 11.2827C400.334 11.2254 398.5 11.6382 397.139 12.6772C395.528 13.8699 394.402 15.5314 393.625 17.2658C392.555 19.5692 392.063 22.047 391.637 24.5041C391.021 28.0418 390.662 31.6095 390.339 35.1811C390.11 38.2632 389.832 41.3439 389.439 44.4129C389.056 46.9977 388.356 49.5356 387.352 51.9793C385.631 55.9376 382.781 59.5744 378.843 61.9429C376.558 63.3962 373.955 64.3881 371.212 64.8517C369.495 65.152 367.748 65.283 366 65.2423C363.717 65.2952 361.44 64.9926 359.268 64.3478C359.253 60.3934 359.257 56.4389 359.257 52.4845C359.241 50.3634 359.303 48.241 359.194 46.1238C363.01 45.5119 366.895 44.922 370.72 44.3517C370.729 50.8257 370.643 57.31 370.671 63.7827C373.16 63.0249 375.337 61.5301 376.965 59.6746C378.515 57.8697 379.721 55.8416 380.533 53.6746C381.854 50.383 382.569 46.9181 383.017 43.4481C383.303 41.0001 383.464 38.5405 383.628 36.0835C383.674 34.4533 383.828 32.8283 384.016 31.2059C384.435 28.2319 385.037 25.2606 386.137 22.4259C387.141 19.8725 388.527 17.4155 390.479 15.3504C391.837 13.9845 393.387 12.7527 395.183 11.8934Z" fill="white"/>
<path d="M414.306 21.7045C415.07 21.3803 415.951 21.3699 416.771 21.4766C418.426 21.8594 419.565 23.3972 419.549 24.9193C419.549 26.1576 418.873 27.3425 417.845 28.1368C416.494 29.2214 414.339 29.0482 412.958 28.0977C411.86 27.3946 411.574 26.0495 411.713 24.905C411.868 23.517 412.917 22.2748 414.306 21.7045Z" fill="white"/>
<path d="M422.476 40.8598C425.201 38.8403 428.373 37.1241 431.924 36.7595C433.769 36.6658 435.751 36.6436 437.391 37.5408C438.927 38.3871 439.732 39.9509 440.198 41.4679C440.731 40.4132 441.295 39.3702 441.853 38.3272C444.381 38.197 446.907 38.016 449.435 37.8936C446.874 42.3042 444.374 46.7448 441.936 51.2153C439.293 56.0616 436.534 60.8507 433.618 65.5707C435.618 64.9808 437.542 64.1949 439.355 63.227C443.538 60.9496 447.169 57.9197 450.383 54.6072C451.055 53.7061 451.565 52.7113 452.167 51.7699C454.963 47.1788 457.723 42.5668 460.315 37.878C463.147 37.7712 465.981 37.6749 468.815 37.572C466.282 41.1918 463.727 44.7986 461.185 48.4119C460.544 49.365 459.807 50.2673 459.236 51.2569C459.918 50.5759 460.424 49.7712 461.039 49.0434C463.712 45.5499 466.723 42.21 470.427 39.5733C472.274 38.2595 474.337 37.0121 476.726 36.7634C477.809 36.71 478.949 36.6332 479.971 37.0369C481.442 37.5642 482.385 38.908 482.668 40.2791C482.955 42.0551 482.61 43.8858 481.819 45.5225C481.431 46.3923 480.881 47.1892 480.385 48.0108C478.807 50.5616 476.943 52.9509 475.263 55.4509C474.167 57.0746 472.968 58.7452 472.718 60.6801C472.574 61.4874 472.631 62.4197 473.264 63.0551C473.838 63.4874 474.687 63.5186 475.354 63.2387C476.601 62.7491 477.695 61.99 478.751 61.2218C480.456 59.8676 481.997 58.3572 483.484 56.8077C487.277 52.8546 490.666 48.6046 494.097 44.3975C494.369 44.5343 494.644 44.6684 494.925 44.7973V44.8403C493.547 46.3689 492.317 48.003 490.993 49.5707C489.128 51.898 487.174 54.1645 485.132 56.3702C483.307 58.3429 481.433 60.2908 479.306 62.0017C477.585 63.3845 475.521 64.5512 473.191 64.7751C471.989 64.822 470.727 64.8728 469.605 64.3975C468.471 63.9718 467.701 63.0251 467.216 62.0356C466.516 60.5876 466.604 58.9392 466.991 57.4288C467.489 55.5108 468.642 53.8142 469.716 52.1254C471.268 49.7465 473.072 47.5147 474.671 45.1619C475.65 43.7947 476.62 42.3377 476.813 40.6801C476.967 39.8077 476.442 38.7582 475.415 38.5877C474.112 38.3676 472.864 38.9457 471.83 39.6033C470.76 40.3083 469.761 41.0969 468.842 41.96C465.739 44.6944 463.156 47.8546 460.668 51.0512C457.513 55.1319 454.616 59.3845 452.225 63.8819C449.734 63.8936 447.245 64.0473 444.754 64.0733C446.084 61.753 447.512 59.4809 448.857 57.1723C444.387 61.309 439.137 64.9848 432.96 66.7139C429.763 72.2192 425.646 77.408 420.177 81.2322C414.816 84.9991 408.103 87.335 401.276 87.1918C399.172 87.2491 397.069 87.02 395.039 86.5121C392.646 85.8741 390.397 84.559 389.062 82.6163C387.98 81.1059 387.593 79.266 387.659 77.4861C387.599 75.3894 388.458 73.3568 390.048 71.835C391.755 70.1775 394.207 69.2608 396.681 69.0877C398.351 68.9887 399.996 69.283 401.649 69.4327C401.649 69.6384 401.649 69.8455 401.649 70.0538C399.33 70.0121 396.819 70.7817 395.472 72.5864C393.984 74.4731 393.751 76.9014 393.941 79.1475C394.177 81.1007 395.074 83.0538 396.68 84.408C398.286 85.7621 400.529 86.3871 402.692 86.2309C404.72 86.1502 406.707 85.6797 408.52 84.8507C411.465 83.5043 414.02 81.5408 416.23 79.3363C417.798 77.7872 419.247 76.1428 420.567 74.4145C423.866 70.2621 426.681 65.8207 429.419 61.3507C430.21 60.0577 431.113 58.8233 431.886 57.5225C431.408 57.947 431.025 58.4522 430.582 58.9001C428.373 61.21 425.69 63.2686 422.476 64.2986C421.055 64.7791 419.517 64.8676 418.016 64.7673C417.353 64.6952 416.714 64.5043 416.133 64.2059C415.553 63.9076 415.043 63.5075 414.634 63.0291C413.392 61.5323 412.755 59.6935 412.828 57.8207C412.781 56.7328 412.889 55.6439 413.15 54.5811C410.588 57.2556 408.028 59.9744 404.932 62.1593C403.138 63.3975 401.094 64.4457 398.841 64.7634C397.667 64.8337 396.415 64.8793 395.336 64.3728C394.116 63.8845 393.284 62.8103 392.934 61.6671C392.463 60.1254 392.701 58.4848 393.198 56.9796C393.931 54.8442 395.089 52.8585 396.237 50.8884C398.768 46.615 401.483 42.4353 404.113 38.2166C406.673 38.0616 409.236 37.9627 411.797 37.8259C409.503 41.5473 407.132 45.2257 404.796 48.9236C402.85 52.0616 400.878 55.2035 399.365 58.5395C398.891 59.6684 398.432 60.9001 398.728 62.1189C398.83 62.5746 399.076 63.085 399.623 63.2113C400.466 63.335 401.276 62.9991 402.016 62.6736C404.869 61.352 407.085 59.2061 409.285 57.1462C410.735 55.7244 412.091 54.227 413.477 52.753C413.874 52.3442 413.956 51.783 414.194 51.296C415.938 47.2374 418.788 43.6468 422.476 40.8598V40.8598ZM433.638 37.7257C432.347 37.9249 431.147 38.4965 430.109 39.2074C428.549 40.3444 427.164 41.6655 425.99 43.1358C424.166 45.4425 422.674 47.9516 421.551 50.602C420.789 52.4327 420.136 54.3233 419.948 56.283C419.86 57.8715 419.955 59.5382 420.762 60.9848C421.347 61.947 422.661 62.2765 423.798 62.2556C425.34 62.2621 426.667 61.4158 427.78 60.5278C429.931 58.7791 431.584 56.5994 433.016 54.3416C434.643 51.7855 435.938 49.0669 436.875 46.24C437.367 44.6775 437.754 43.0512 437.641 41.4106C437.549 40.3246 437.404 39.1293 436.574 38.2856C435.819 37.5707 434.636 37.5512 433.638 37.7257V37.7257Z" fill="white"/>
<path d="M336.884 49.5511C340.675 48.9274 344.485 48.3792 348.279 47.7842C348.294 53.2972 348.279 58.8102 348.286 64.3206C344.484 64.3206 340.685 64.3206 336.88 64.3206C336.888 59.397 336.89 54.4738 336.884 49.5511Z" fill="white"/>
<path d="M320.249 52.0924C322.228 51.7682 324.215 51.474 326.199 51.1719V64.3229H320.252C320.245 60.2431 320.244 56.1662 320.249 52.0924Z" fill="white"/>
<path d="M336.884 13.6064C340.684 13.6064 344.484 13.6064 348.284 13.6064C348.284 21.4129 348.284 29.2193 348.284 37.0257C349.575 35.5322 351.139 34.1689 353.078 33.402C355.492 32.4202 358.228 32.3343 360.823 32.6325C363.297 32.9736 365.743 33.902 367.49 35.5661C369.04 36.9239 370.081 38.6892 370.466 40.613C370.743 41.8447 370.753 43.1038 370.733 44.3551C366.908 44.9255 363.084 45.5049 359.268 46.1169L359.206 46.1273C359.096 44.6742 358.686 43.083 357.404 42.1038C356.579 41.4281 355.426 41.2575 354.353 41.2432C353.018 41.2432 351.628 41.5127 350.57 42.3031C349.014 43.5062 348.389 45.4281 348.341 47.2301C348.324 47.4137 348.298 47.5986 348.281 47.7848C344.485 48.3825 340.68 48.9281 336.887 49.5518L336.884 13.6064Z" fill="white"/>
<path d="M320.253 22.9814H326.199V33.2028C328.374 33.2028 330.55 33.2028 332.726 33.2028C332.726 36.241 332.726 39.2792 332.726 42.3174C330.551 42.3174 328.375 42.3174 326.199 42.3174V51.1715C324.214 51.4736 322.228 51.7679 320.249 52.0921C320.25 42.389 320.251 32.6854 320.253 22.9814Z" fill="white"/>
<path d="M279.946 17.8389H306.908C306.908 21.2885 306.908 24.7386 306.908 28.1891H292.28V35.8076H306.121V46.0941C301.508 46.0941 296.894 46.0941 292.28 46.0941C291.199 46.0225 290.163 45.7035 289.109 45.5042C286.053 44.8766 283.011 44.1904 279.948 43.5889C279.947 35.0047 279.946 26.4213 279.946 17.8389Z" fill="white"/>
<path d="M314.798 33.2028C314.798 29.7957 314.798 26.3886 314.798 22.9814H320.248C320.234 32.6846 320.234 42.3881 320.248 52.0921C318.428 51.7288 316.626 51.2939 314.798 50.9736C314.798 48.0882 314.798 45.2028 314.798 42.3174H311.212C311.212 39.2792 311.212 36.241 311.212 33.2028H314.798Z" fill="white"/>
<path d="M279.948 43.5859C283.011 44.1875 286.053 44.8737 289.109 45.5013C290.163 45.707 291.199 46.0221 292.28 46.0911C292.28 48.7396 292.28 51.3872 292.28 54.0339H306.909V64.3854H279.948C279.948 57.4523 279.948 50.5191 279.948 43.5859Z" fill="white"/>
<path d="M314.798 50.9736C316.628 51.2939 318.429 51.7288 320.248 52.0921C320.248 56.172 320.248 60.2488 320.248 64.3226H314.798C314.798 59.8738 314.798 55.4242 314.798 50.9736Z" fill="white"/>
<path fill-rule="evenodd" clip-rule="evenodd" d="M528.399 11.077C527.062 11.1479 525.093 11.3861 524.985 11.4901C524.945 11.5287 524.867 11.5428 524.812 11.5216C524.756 11.5003 524.264 11.5795 523.718 11.6974C516.157 13.3301 509.544 17.7866 505.195 24.182C500.194 31.5348 498.721 40.6055 501.137 49.1804C502.826 55.1788 506.438 60.5878 511.372 64.5113C520.758 71.974 533.821 73.1025 544.369 67.3617C550.2 64.1883 554.986 58.9764 557.567 52.9886C558.27 51.3569 559.207 48.5034 559.283 47.7579C559.299 47.6035 559.338 47.4356 559.369 47.3849C559.401 47.3343 559.441 47.1479 559.459 46.9709C559.477 46.7939 559.514 46.5928 559.541 46.524C559.664 46.211 559.934 43.9227 560.008 42.5618C560.305 37.0998 559.038 31.5217 556.405 26.6955C555.789 25.5675 554.815 24.0435 554.177 23.2096C553.966 22.9343 553.766 22.6716 553.732 22.6257C550.995 18.9558 546.452 15.4235 542.013 13.5148C540.302 12.7789 537.49 11.8679 536.746 11.8081C536.565 11.7936 536.397 11.7553 536.373 11.7228C536.348 11.6904 536.16 11.6528 535.955 11.6394C535.75 11.626 535.563 11.5911 535.54 11.562C535.408 11.394 530.908 10.9549 529.819 11.0038C529.681 11.0099 529.042 11.0429 528.399 11.077ZM632.343 16.5342C628.894 17.105 626.139 19.1278 624.735 22.1209C623.723 24.2778 623.566 27.1711 624.334 29.5188C625.321 32.5363 627.802 34.9085 630.917 35.8141C633.084 36.4442 635.681 36.4069 637.761 35.7156C640.219 34.8985 642.06 33.3956 643.345 31.1573C643.763 30.4295 644.275 29.0629 644.32 28.5524C644.334 28.4032 644.376 28.2304 644.414 28.1684C644.557 27.9382 644.563 25.4202 644.423 24.6163C643.878 21.4892 642.003 18.9538 639.192 17.5404C638.139 17.0114 636.414 16.4786 636.193 16.6147C636.151 16.641 636.101 16.6189 636.083 16.5655C636.032 16.4124 633.221 16.3889 632.343 16.5342ZM704.632 16.5273C703.567 16.703 702.691 16.9738 701.772 17.4114C698.701 18.8726 696.779 21.4499 696.285 24.7663C695.478 30.1992 698.723 34.8928 704.089 36.0529C704.433 36.1274 705.279 36.2101 705.968 36.2366C709.099 36.3572 711.683 35.4385 713.607 33.5213L714.23 32.9004L713.273 31.9937C712.746 31.495 712.118 30.9146 711.877 30.7039L711.438 30.3209L710.828 30.8942C710.11 31.569 709.511 31.9411 708.669 32.2364C708.166 32.4126 707.857 32.4582 706.944 32.4906C705.708 32.5343 705.105 32.4501 704.256 32.1152C702.49 31.4184 701.228 29.9578 700.747 28.0551C700.516 27.14 700.516 25.5375 700.747 24.6201C701.175 22.9154 702.266 21.5299 703.755 20.8003C704.824 20.2761 705.511 20.1411 706.887 20.1851C707.793 20.2139 708.083 20.2575 708.641 20.4481C709.474 20.7329 710.332 21.2606 710.962 21.8754L711.446 22.3477L712.325 21.5274C712.809 21.0763 713.435 20.4971 713.718 20.2404L714.231 19.7737L713.774 19.2964C712.518 17.9818 710.795 17.0462 708.85 16.6207C707.997 16.4342 705.527 16.3796 704.632 16.5273ZM578.721 26.3391V35.9332L580.872 35.9109L583.023 35.8886L583.064 33.2611L583.106 30.6335L585.904 30.5877C588.944 30.5379 589.366 30.4863 590.692 30.0031C592.437 29.3669 593.682 28.2961 594.42 26.7964C594.93 25.7581 595.041 25.233 595.044 23.8352C595.047 22.0946 594.944 21.6096 594.312 20.3735C594.051 19.862 593.794 19.5297 593.214 18.9504C592.542 18.2798 592.349 18.1416 591.498 17.7232C589.649 16.8133 589.077 16.745 583.309 16.745H578.721V26.3391ZM602.191 18.4877C602.191 20 602.209 20.2372 602.323 20.2812C602.396 20.309 604.405 20.3318 606.788 20.3318C611.43 20.3318 611.648 20.348 612.519 20.7581C613.623 21.2778 614.218 22.297 614.218 23.6684C614.218 25.5209 613.204 26.6809 611.303 27.0023C611.046 27.0457 608.9 27.0923 606.534 27.1057L602.233 27.1301L602.211 31.5302L602.19 35.9303H604.361H606.532L606.554 33.2819L606.576 30.6335L608.622 30.6153L610.669 30.5971L612.464 33.26L614.26 35.9228L616.536 35.9266C617.788 35.9287 618.812 35.908 618.812 35.8806C618.812 35.7831 618.524 35.3464 618.46 35.3464C618.424 35.3464 618.395 35.3121 618.395 35.2703C618.395 35.202 616.426 32.2778 616.312 32.1767C616.161 32.0427 614.803 29.9332 614.805 29.8348C614.806 29.7694 615.079 29.5658 615.411 29.3823C615.805 29.1644 616.279 28.7871 616.776 28.2952C617.431 27.6472 617.591 27.4315 617.917 26.752C618.436 25.6735 618.585 24.9673 618.58 23.6267C618.574 22.4147 618.409 21.6029 617.98 20.688C617.186 18.9936 615.679 17.7704 613.636 17.1629C612.374 16.7873 611.697 16.746 606.806 16.7455L602.191 16.745V18.4877ZM653.159 18.4758L653.182 20.2067L656.481 20.2484L659.78 20.2901V25.3784C659.78 30.0641 659.768 30.5029 659.629 30.9254C659.398 31.6272 658.997 32.1184 658.428 32.3971C657.989 32.6124 657.856 32.6361 657.045 32.6421C656.551 32.6459 656.147 32.6236 656.147 32.5928C656.147 32.562 655.999 32.4926 655.819 32.4386C655.259 32.2712 654.29 31.5539 653.859 30.988C653.728 30.816 653.591 30.6752 653.553 30.6752C653.474 30.6752 651.219 33.4105 651.219 33.5068C651.219 33.6403 651.912 34.3499 652.412 34.7283C653.095 35.2455 654.27 35.7984 655.148 36.0165C655.602 36.1293 656.257 36.2081 656.982 36.2375C660.343 36.3733 662.653 35.0747 663.58 32.5286C664.069 31.1849 664.081 30.9687 664.081 23.5224L664.081 16.745H658.609H653.137L653.159 18.4758ZM674.188 18.455V20.165H681.496H688.804V18.455V16.745H681.496H674.188V18.455ZM720.562 18.5175L720.584 20.2901L723.591 20.3318L726.598 20.3735L726.619 28.1533L726.641 35.9332L728.791 35.9109L730.941 35.8886L730.963 28.1113L730.984 20.3339L733.969 20.312L736.955 20.2901L736.977 18.5175L737 16.745H728.77H720.539L720.562 18.5175ZM635.788 20.3264C636.943 20.6213 638.068 21.3235 638.778 22.1913C640.971 24.8734 640.543 29.312 637.897 31.3192C636.711 32.2192 635.597 32.55 633.945 32.4933C633.039 32.4623 632.781 32.4205 632.166 32.2054C630.44 31.6022 629.204 30.3438 628.554 28.5282C628.299 27.8152 628.293 27.762 628.293 26.3376C628.293 24.9132 628.299 24.8601 628.554 24.1471C628.921 23.1214 629.275 22.5615 630.046 21.789C630.784 21.0493 631.695 20.5252 632.635 20.2993C633.399 20.1157 635.018 20.1297 635.788 20.3264ZM588.204 20.4596C589.746 20.8552 590.598 21.8322 590.725 23.3511C590.876 25.1459 589.971 26.4282 588.222 26.8986C587.794 27.0135 587.284 27.0397 585.403 27.0428L583.106 27.0467L583.084 23.6892L583.063 20.3318H585.385C587.198 20.3318 587.816 20.3598 588.204 20.4596ZM674.207 26.1917L674.229 27.8808H681.496H688.762L688.785 26.1917L688.808 24.5025H681.496H674.184L674.207 26.1917ZM541.748 28.1788C542.217 28.309 542.687 28.7728 542.852 29.2681C543.03 29.8036 542.961 30.2901 542.639 30.771C542.506 30.9707 537.31 36.2121 531.092 42.4186C524.875 48.6252 519.808 53.7268 519.834 53.7555C519.859 53.7843 519.84 53.7851 519.79 53.7572C519.741 53.7294 519.541 53.7619 519.345 53.8294C518.981 53.9546 518.168 53.961 518.168 53.8387C518.168 53.8016 518.138 53.7893 518.102 53.8114C518.067 53.8335 517.869 53.6714 517.664 53.4513C517.156 52.907 517.114 52.8439 517.148 52.6758C517.164 52.5956 517.146 52.5298 517.109 52.5298C517.071 52.5298 517.04 52.3985 517.04 52.2379C517.04 52.0773 517.068 51.9459 517.102 51.9459C517.137 51.9459 517.165 51.8878 517.165 51.8166C517.165 51.7456 517.225 51.5673 517.299 51.4204C517.43 51.1583 539.695 28.8296 540.166 28.4871C540.668 28.1229 541.183 28.0223 541.748 28.1788ZM528.229 29.1196C529.003 29.5393 529.293 30.5469 528.88 31.3842C528.715 31.7178 520.985 39.4697 520.511 39.7771C520.306 39.9094 520.053 40.0176 519.947 40.0176C519.841 40.0176 519.754 40.0552 519.754 40.1011C519.754 40.1469 519.679 40.1845 519.587 40.1845C519.495 40.1845 519.42 40.1428 519.42 40.092C519.42 40.0351 519.34 40.0196 519.211 40.0519C519.097 40.0807 519.003 40.0691 519.003 40.0261C519.003 39.9832 518.84 39.8859 518.641 39.81C518.333 39.6926 518.25 39.6078 518.087 39.24C517.981 39.0025 517.902 38.7424 517.911 38.6622C517.92 38.5819 517.891 38.5162 517.846 38.5162C517.76 38.5162 517.761 38.3642 517.848 38.2242C517.877 38.1783 517.913 38.0282 517.929 37.8906C517.945 37.7529 518.033 37.5465 518.123 37.4318C518.462 37.0035 526.073 29.4108 526.372 29.2029C526.944 28.8052 527.595 28.776 528.229 29.1196ZM674.188 34.1782V35.9303H681.498H688.808L688.785 34.1995L688.762 32.4686L681.475 32.4473L674.188 32.426V34.1782ZM541.144 42.0469C541.658 42.3177 541.989 42.8142 542.036 43.3837C542.109 44.2631 542.223 44.125 537.764 48.5909C535.054 51.306 533.546 52.7572 533.321 52.8659C532.906 53.0669 532.302 53.0782 531.883 52.8929C531.713 52.8174 531.522 52.7451 531.461 52.7324C531.323 52.7038 531.346 52.7351 531.12 52.2594C530.931 51.8614 530.755 50.945 530.868 50.945C530.901 50.945 530.953 50.8417 530.984 50.7156C531.063 50.3925 539.217 42.2264 539.674 42.0126C540.138 41.796 540.693 41.8089 541.144 42.0469ZM585.403 45.911C583.224 46.2441 580.976 47.3995 579.543 48.9229C577.824 50.7511 576.967 53.005 576.967 55.7033C576.967 59.5262 578.822 62.6566 582.149 64.4481C584.66 65.8003 588.306 65.9975 591.515 64.9549C592.455 64.6497 593.603 64.1004 594.34 63.6039L594.883 63.238L594.905 59.3437L594.926 55.4493H592.964H591.001L590.979 58.2646L590.957 61.0798L590.498 61.3052C589.713 61.6902 588.75 61.8802 587.616 61.8738C586.139 61.8653 585.52 61.7301 584.464 61.1863C582.286 60.0643 581.06 57.5626 581.376 54.886C581.561 53.3193 582.054 52.2753 583.1 51.2323C584.294 50.0429 585.626 49.5286 587.516 49.5275C588.672 49.5268 589.445 49.6772 590.304 50.0702C591.012 50.3944 591.561 50.7585 592.107 51.2666L592.504 51.6369L593.025 51.1447C593.312 50.8739 593.916 50.3066 594.367 49.8839C595.034 49.2601 595.178 49.0832 595.134 48.9445C595.025 48.6008 593.455 47.38 592.505 46.9004C591.862 46.5754 591.002 46.2621 590.91 46.3189C590.867 46.3454 590.832 46.3341 590.832 46.2939C590.832 46.2084 589.873 45.976 589.036 45.8586C588.203 45.7417 586.334 45.7687 585.403 45.911ZM604.196 55.5345C601.922 60.7189 600.049 65.0354 600.035 65.1265C600.009 65.2884 600.059 65.2923 602.176 65.2923H604.344L604.948 63.8117C605.28 62.9973 606.18 60.8108 606.948 58.9528C607.715 57.0947 608.79 54.4751 609.337 53.1313C610.18 51.0585 610.355 50.6918 610.489 50.7122C610.614 50.7315 611.256 52.2305 613.615 58.0143L616.583 65.2923H618.779C619.986 65.2923 620.991 65.2642 621.012 65.2297C621.034 65.1953 619.165 60.888 616.861 55.6579L612.671 46.1486L610.501 46.1285L608.33 46.1083L604.196 55.5345ZM628.038 46.2112C628.016 46.2686 628.008 50.5758 628.02 55.783L628.041 65.2506L634.955 65.2719L641.868 65.2933L641.845 63.5202L641.823 61.7472L637.104 61.7054L632.385 61.6637L632.363 53.8853L632.342 46.1069H630.21C628.581 46.1069 628.069 46.1315 628.038 46.2112ZM655.783 46.378C655.719 46.5272 653.84 50.8087 651.606 55.8928C649.372 60.9768 647.544 65.1722 647.544 65.2158C647.544 65.2644 648.388 65.2864 649.727 65.2728L651.911 65.2506L653.237 62.0391C653.966 60.2728 655.304 57.012 656.211 54.7927C657.117 52.5735 657.908 50.7387 657.969 50.7152C658.03 50.6917 658.116 50.7098 658.162 50.7554C658.207 50.8008 659.568 54.0809 661.185 58.0443L664.126 65.2506L666.369 65.2728C668.478 65.2937 668.61 65.2863 668.573 65.1477C668.552 65.0666 666.662 60.7493 664.373 55.5536L660.212 46.1069H658.055H655.898L655.783 46.378ZM672.466 46.2368C672.55 46.4555 676.618 52.1962 676.689 52.1962C676.726 52.1962 677.325 51.4977 678.022 50.6438L679.287 49.0916L679.139 48.8652C679.057 48.7407 678.596 48.0707 678.113 47.3764L677.236 46.1138L674.826 46.1104C672.678 46.1073 672.421 46.121 672.466 46.2368ZM683.763 49.2199C682.196 51.509 681.268 52.7698 680.256 53.9831C679.349 55.0703 677.723 57.2473 675.489 60.3649C673.625 62.9673 672.1 65.1406 672.1 65.1944C672.1 65.267 672.721 65.2923 674.506 65.2923H676.912L679.133 61.9765C680.483 59.9622 681.858 58.0243 682.636 57.0391C684.052 55.2477 690.482 46.2692 690.42 46.1696C690.399 46.1351 689.371 46.1069 688.137 46.1069H685.894L683.763 49.2199ZM696.543 46.1699C696.521 46.2045 698.135 48.9844 700.129 52.3472L703.755 58.4617V61.8784V65.2951L705.905 65.2728L708.056 65.2506L708.098 61.7889L708.14 58.3272L711.682 52.363C713.63 49.0827 715.241 46.3325 715.262 46.2514C715.299 46.1129 715.175 46.1053 713.229 46.1263L711.157 46.1486L708.722 50.26C707.383 52.5213 706.243 54.4153 706.19 54.4689C706.115 54.5432 706.064 54.5375 705.973 54.4448C705.908 54.378 704.777 52.5027 703.46 50.2776C702.143 48.0526 701.022 46.2044 700.969 46.1707C700.842 46.0896 696.593 46.0887 696.543 46.1699ZM685.046 60.4234C684.379 61.2751 683.846 62.0111 683.859 62.0588C683.873 62.1065 684.361 62.8521 684.945 63.7156L686.006 65.2856L688.449 65.2889C690.049 65.2911 690.892 65.2631 690.892 65.2076C690.892 65.1407 690.328 64.3137 689.953 63.8325C689.918 63.7866 689.599 63.3362 689.246 62.8315C688.893 62.3269 688.573 61.8764 688.535 61.8306C688.497 61.7847 688.011 61.0996 687.454 60.3083C686.897 59.5169 686.4 58.8705 686.349 58.8719C686.298 58.8734 685.712 59.5715 685.046 60.4234Z" fill="white"/>
<path fill-rule="evenodd" clip-rule="evenodd" d="M794.519 55.3932C785.822 55.3932 778.84 48.3763 778.84 39.6359C778.84 30.8955 785.822 23.8786 794.519 23.8786C803.216 23.8786 810.198 30.8955 810.198 39.6359C810.198 48.3763 803.216 55.3932 794.519 55.3932ZM794.519 16C807.503 16 818.038 26.5869 818.038 39.6359C818.038 52.6849 807.503 63.2718 794.519 63.2718C781.535 63.2718 771 52.6849 771 39.6359C771 26.5869 781.535 16 794.519 16ZM816.935 64.5028C818.528 66.1032 818.528 68.5652 816.935 70.0425L801.256 85.7997C799.664 87.4001 797.214 87.4001 795.744 85.7997C794.151 84.1994 794.151 81.7373 795.744 80.2601L811.423 64.5028C812.893 62.9025 815.465 62.9025 816.935 64.5028ZM826 19.9393C826 22.1552 824.285 23.8786 822.08 23.8786C819.875 23.8786 818.16 22.1552 818.16 19.9393C818.16 17.7235 819.875 16 822.08 16C824.163 16 826 17.7235 826 19.9393Z" fill="white"/>
<path fill-rule="evenodd" clip-rule="evenodd" d="M845.047 33.0035L845.087 44.007H847.12H849.152L849.23 39.5904C849.304 35.4343 849.328 35.1378 849.646 34.5646C850.9 32.3005 853.622 32.0201 854.835 34.0299L855.249 34.7169L855.298 39.3996C855.356 44.8608 855.066 44.2743 857.672 44.2038L859.314 44.1593L859.313 38.8289L859.311 33.4985L858.852 32.4324C857.898 30.2203 856.172 29.1362 853.603 29.1362C851.865 29.1362 850.68 29.5821 849.543 30.6647C849.335 30.863 849.304 30.3915 849.267 26.4439L849.225 22H847.116H845.007L845.047 33.0035ZM833.075 25.4521C833.018 25.5079 832.971 26.3988 832.971 27.432V29.3103H831.733C829.917 29.3103 830.001 29.2223 830.001 31.1379C830.001 33.0535 829.917 32.9654 831.733 32.9654H832.971L832.974 35.9733C832.976 37.6277 833.041 39.4122 833.12 39.939C833.385 41.7309 834.336 43.0185 835.941 43.7614C836.701 44.113 837.032 44.1651 838.782 44.2093C841.487 44.2775 841.413 44.3313 841.413 42.2775V40.635L840.122 40.701C839.051 40.7558 838.737 40.7165 838.285 40.4719C837.353 39.9681 837.276 39.6524 837.22 36.1256L837.169 32.9654H839.291H841.413V31.214V29.4626H839.39C838.057 29.4626 837.33 29.404 837.258 29.2908C837.173 29.1572 837.05 27.0662 837.037 25.5409C837.036 25.399 836.545 25.3506 835.108 25.3506C834.047 25.3506 833.133 25.3962 833.075 25.4521ZM869.632 29.1606C866.524 29.5718 864.116 31.5913 863.242 34.5209C862.917 35.6112 862.91 37.8221 863.229 38.9154C864.067 41.7887 865.945 43.5215 869.059 44.2944C871.675 44.9438 874.682 44.1683 876.738 42.3142C877.64 41.5005 878.724 39.7978 878.532 39.4954C878.485 39.422 877.541 39.362 876.434 39.362H874.422L874.113 39.785C873.26 40.9518 870.621 41.3634 869.027 40.5782C867.876 40.0115 867.156 38.9978 867.134 37.9151C867.132 37.8175 869.238 37.7354 872.994 37.6867L878.856 37.6105L878.81 36.6206C878.682 33.9313 877.495 31.7014 875.498 30.4024C873.86 29.3368 871.722 28.8842 869.632 29.1606ZM872.489 32.7612C873.408 33.1875 874.088 34.0015 874.088 34.6761V35.0976H870.727H867.365V34.6412C867.365 34.3296 867.547 33.9887 867.938 33.567C868.62 32.8325 868.911 32.6651 869.945 32.4155C870.887 32.188 871.404 32.258 872.489 32.7612ZM901.76 53.4495V64.4911H903.792H905.825L905.826 60.5694C905.828 56.4332 905.937 55.5712 906.581 54.5553C907.001 53.8928 907.683 53.4174 908.53 53.1968C909.931 52.8319 911.366 53.6368 911.756 55.0064C911.853 55.3456 911.92 57.3657 911.921 59.9298C911.921 63.1076 911.972 64.3271 912.109 64.4606C912.352 64.6968 915.766 64.7153 915.915 64.481C915.971 64.3918 916.009 62.0446 915.998 59.2648C915.98 54.6003 915.954 54.1374 915.656 53.2564C914.794 50.7043 913 49.4875 910.124 49.5047C908.576 49.514 907.803 49.7665 906.694 50.625C906.367 50.8776 906.038 51.0472 905.962 51.0015C905.887 50.9559 905.825 49.0038 905.825 46.6633V42.4079H903.792H901.76V53.4495ZM836.332 49.5453C835.235 49.7401 833.998 50.4092 832.922 51.39C830.358 53.7256 829.773 57.2416 831.395 60.5566C831.87 61.5287 833.176 62.8601 834.27 63.4882C836.412 64.7185 839.632 64.5567 841.294 63.1355C841.597 62.8758 841.889 62.6635 841.942 62.6635C841.995 62.6635 842.037 63.2288 842.035 63.92C842.03 65.808 841.458 66.811 840.053 67.398C839.264 67.7274 837.873 67.7687 837.074 67.4865C836.466 67.2714 835.706 66.6012 835.385 65.9961C835.257 65.7547 835.03 65.5518 834.882 65.5453C834.474 65.5272 831.84 65.5247 831.504 65.5419C831.244 65.5553 831.221 65.6419 831.308 66.2587C831.526 67.8098 832.965 69.4948 834.737 70.2731C837.131 71.3244 840.411 71.2274 842.82 70.0338C843.547 69.6738 844.901 68.3429 845.211 67.6837C846.081 65.8318 846.014 66.5631 846.101 57.9423C846.145 53.5447 846.182 49.9361 846.182 49.9233C846.182 49.8643 845.259 49.8382 843.719 49.8536L842.039 49.8705V50.4797C842.039 50.8147 841.995 51.0889 841.942 51.0889C841.889 51.0889 841.52 50.8565 841.122 50.5724C840.723 50.2886 840.131 49.9485 839.806 49.817C839.111 49.5353 837.221 49.3876 836.332 49.5453ZM867.991 49.5568C865.648 49.954 863.905 51.3598 862.69 53.8302L862.128 54.9725L862.142 57.1046C862.157 59.4531 862.316 60.0694 863.331 61.6995C864.299 63.2567 865.856 64.3126 867.806 64.7354C868.832 64.9576 869.128 64.9658 870.015 64.7971C871.118 64.5872 871.985 64.2221 872.808 63.6207C873.093 63.4124 873.356 63.2701 873.391 63.3044C873.426 63.3388 873.51 63.6263 873.578 63.9436L873.701 64.5202L875.503 64.5342C876.495 64.542 877.391 64.497 877.495 64.4346C877.638 64.3482 877.684 62.5823 877.684 57.1135V49.906L877.313 49.837C877.01 49.7805 874.153 49.7939 873.736 49.8536C873.672 49.8629 873.619 50.1063 873.619 50.3946C873.619 51.1066 873.394 51.1885 872.795 50.695C871.637 49.7417 869.661 49.2735 867.991 49.5568ZM889.8 49.5511C888.923 49.7126 888.023 50.1119 887.347 50.6388C887.029 50.8863 886.695 51.0889 886.604 51.0889C886.513 51.0889 886.439 50.8147 886.439 50.4797V49.8705H884.405H882.372L882.412 60.2648L882.452 70.6592L884.445 70.7018L886.439 70.7444V67.0086C886.439 64.4786 886.492 63.2727 886.604 63.2727C886.696 63.2727 887.093 63.513 887.488 63.8067C888.772 64.762 890.539 65.103 892.246 64.7249C893.743 64.3932 894.692 63.8741 895.712 62.8298C897.331 61.1733 898.008 59.4924 898.008 57.1315C898.008 53.9577 896.447 51.4067 893.708 50.1067C892.525 49.545 891.006 49.3291 889.8 49.5511ZM857.516 49.8443C856.572 50.1861 856.053 50.5469 855.62 51.162C855.422 51.4442 855.204 51.6419 855.137 51.6015C855.07 51.561 855.015 51.155 855.015 50.6992V49.8705H852.982H850.95V57.163C850.95 63.983 850.968 64.4596 851.223 64.5177C851.374 64.552 852.271 64.5429 853.217 64.4975L854.937 64.4149L855.03 60.3029C855.081 58.0413 855.174 56.0195 855.237 55.8101C855.442 55.1242 856.175 54.2446 856.813 53.9201C857.465 53.5881 858.685 53.4992 859.666 53.7122L860.174 53.8226V51.8519C860.174 50.0594 860.146 49.867 859.871 49.7235C859.432 49.4943 858.326 49.551 857.516 49.8443ZM839.652 53.2581C840.611 53.5019 841.886 54.691 842.161 55.5993C842.618 57.1065 842.296 58.6112 841.31 59.5731C840.456 60.4063 839.743 60.6836 838.456 60.6836C837.557 60.6836 837.295 60.6151 836.565 60.1887C835.156 59.3657 834.581 58.1908 834.745 56.4645C834.884 54.9862 835.713 53.9134 837.131 53.3738C838.037 53.0295 838.643 53.0016 839.652 53.2581ZM871.862 53.5688C874.658 54.9952 874.457 59.7217 871.55 60.9048C870.754 61.229 869.164 61.2033 868.373 60.8533C867.13 60.3031 866.115 58.6375 866.115 57.147C866.115 56.0631 866.568 55.0435 867.417 54.2197C867.862 53.7887 868.472 53.3561 868.772 53.2588C869.599 52.9914 871.008 53.1327 871.862 53.5688ZM891.687 53.4953C892.474 53.8902 893.236 54.6659 893.544 55.3864C893.906 56.2305 893.862 58.1467 893.461 59.0084C892.804 60.4222 891.65 61.1405 890.034 61.1405C888.839 61.1405 887.891 60.7331 887.165 59.9074C885.695 58.2338 885.808 55.7923 887.429 54.2197C887.873 53.7887 888.483 53.3561 888.784 53.2588C889.544 53.0127 890.954 53.1277 891.687 53.4953Z" fill="white"/>
<path fill-rule="evenodd" clip-rule="evenodd" d="M0 40V65H9.34343H18.6869V59.8569C18.6869 53.7407 18.6726 53.7988 20.4057 52.8749C20.9758 52.5712 21.3678 52.5421 24.8951 52.5421C29.1667 52.5421 29.7414 52.6535 30.6589 53.6591C31.4222 54.4956 31.4815 54.9633 31.4815 60.1429V65H40.8249H50.1684V58.8552V52.7104L42.4663 52.7084C34.3359 52.7064 33.488 52.638 32.5076 51.9059C31.516 51.1657 31.4015 50.83 31.3419 48.4901L31.2864 46.3131H26.4239C21.9158 46.3131 21.4934 46.2877 20.6283 45.964C19.9938 45.7266 19.5473 45.421 19.2332 45.0094L18.771 44.404L18.7209 40.1488C18.6741 36.1768 18.6931 35.8498 19.0059 35.2369C19.381 34.5015 19.8423 34.1471 20.9077 33.7761C21.4867 33.5744 22.6093 33.5229 26.4731 33.521L31.3131 33.5185V31.4391C31.3131 29.5596 31.3497 29.3061 31.6919 28.803C32.1956 28.063 32.7965 27.6369 33.5988 27.4507C33.9621 27.3665 37.8387 27.2958 42.2138 27.2936L50.1684 27.2896V21.1448V15H40.8249H31.4815V19.9936C31.4815 24.9753 31.4805 24.9889 31.0732 25.6838C30.8002 26.1497 30.3678 26.5451 29.7685 26.8771L28.8721 27.3737H25C21.2066 27.3737 21.1109 27.3652 20.2862 26.9529C19.6985 26.6589 19.331 26.3288 19.0684 25.8586C18.7027 25.2035 18.6923 25.0468 18.6896 20.0926L18.6869 15H9.34343H0V40ZM62.963 40V65H72.3056H81.6481L81.6911 49.3013L81.734 33.6027L86.586 33.5581C91.7412 33.5106 92.3397 33.5808 93.4391 34.3636C94.4886 35.1109 94.4444 34.4057 94.4444 50.421V65H103.788H113.131V49.3434V33.6869H105.054C96.3482 33.6869 96.1488 33.6685 95.1382 32.7774C94.2843 32.0244 94.2761 31.9327 94.2761 23.1704V15H78.6195H62.963V40ZM125.926 40V65H135.354H144.781V49.2524V33.5045L149.874 33.5537C154.923 33.6022 154.974 33.6062 155.808 34.0236C156.28 34.2599 156.815 34.6953 157.028 35.0165L157.407 35.5886V50.2943V65H166.751H176.094V49.3434V33.6869H167.959H159.825L158.919 33.2239C157.218 32.354 157.33 33.0244 157.275 23.4054L157.227 15H141.577H125.926V40ZM188.889 21.0606V27.1212L202.82 27.1237C214.524 27.1258 216.92 27.166 217.808 27.3754C219.776 27.8396 220.37 28.5609 220.37 30.4882C220.37 32.0386 220.026 32.651 218.816 33.254L217.947 33.6869H203.418H188.889V39.9158V46.1448H203.279C219.396 46.1448 218.545 46.0818 219.739 47.3626C220.351 48.0192 220.37 48.0783 220.37 49.2892C220.37 50.7093 220.13 51.3205 219.354 51.8729C218.193 52.6995 218.062 52.7062 202.988 52.7084L188.889 52.7104V58.8552V65H204.545H220.202V59.9411C220.202 54.6056 220.229 54.3955 221.022 53.4929C221.784 52.6249 221.71 52.6322 230.724 52.5421L239.141 52.4579L239.185 39.9692L239.228 27.4806L230.935 27.4271C222.82 27.3749 222.629 27.366 221.97 27.0113C221.162 26.5766 220.625 26.0264 220.382 25.3847C220.269 25.088 220.202 23.0567 220.202 19.9554V15H204.545H188.889V21.0606ZM241.498 58.9943C240.028 59.5695 239.303 60.7071 239.43 62.2396C239.704 65.5354 244.323 65.966 245.376 62.7938C245.894 61.2333 244.969 59.5419 243.283 58.9663C242.586 58.7286 242.16 58.7354 241.498 58.9943ZM243.854 59.7113C245.043 60.4911 245.386 62.2916 244.552 63.3847C243.97 64.1481 243.305 64.495 242.424 64.495C241.559 64.495 240.876 64.148 240.351 63.4429C239.812 62.7192 239.682 62.101 239.9 61.2924C240.095 60.5672 241.058 59.5116 241.641 59.3845C242.251 59.2514 243.414 59.4231 243.854 59.7113ZM241.246 61.7779C241.246 63.3726 241.268 63.4849 241.583 63.4849C241.863 63.4849 241.919 63.3726 241.919 62.8114C241.919 62.3293 241.99 62.138 242.168 62.138C242.305 62.138 242.572 62.4411 242.761 62.8114C242.987 63.2545 243.218 63.4849 243.438 63.4849C243.869 63.4849 243.858 63.3231 243.379 62.6177L242.987 62.0401L243.379 61.7446C243.818 61.4136 243.878 61.0022 243.554 60.5581C243.403 60.3519 243.016 60.2317 242.291 60.1658L241.246 60.071V61.7779ZM242.902 61.0236C242.968 61.3692 242.676 61.6264 242.214 61.6305C241.997 61.6323 241.919 61.4971 241.919 61.1168C241.919 60.6532 241.966 60.6059 242.381 60.6539C242.673 60.6875 242.864 60.8232 242.902 61.0236Z" fill="white"/>
</svg>
