<svg width="100" height="43" viewBox="0 0 100 43" fill="none" xmlns="http://www.w3.org/2000/svg">
<path d="M9.94011 15.5305H13.8757L8.97309 9.43567L13.5383 3.49887H9.94011L7.12899 7.38149L4.18294 3.49887H0.224889L4.99254 9.48081L0 15.5305H3.59823L6.79166 11.4447L9.94011 15.5305Z" fill="white"/>
<path d="M16.1063 3.49887V15.5305H19.4796V9.09706C19.4796 7.06546 20.694 5.95937 22.3582 5.95937C23.865 5.95937 24.6521 6.83973 24.6521 8.48758V15.5305H28.0254V9.09706C28.0254 7.06546 29.2173 5.95937 30.9265 5.95937C32.3883 5.95937 33.1979 6.83973 33.1979 8.48758V15.5305H36.5712V8.03612C36.5712 4.94357 35.0195 3.22799 32.2983 3.22799C30.0719 3.22799 28.5427 4.37923 27.868 6.25282H27.823C27.3058 4.28894 25.9115 3.22799 23.7975 3.22799C21.5936 3.22799 20.1093 4.33409 19.4571 6.20767H19.3897V3.49887H16.1063Z" fill="white"/>
<path d="M38.8205 3.49887V5.91422H40.732V12.6411C40.732 14.6275 41.6991 15.7562 44.6001 15.7562C45.9944 15.7562 46.7366 15.6433 47.7936 15.4402V13.07C47.1189 13.1828 46.5117 13.2731 45.927 13.2731C44.5551 13.2731 44.1054 12.8442 44.1054 11.3318V5.91422H47.6811V3.49887H44.1054V0H42.5986L41.0919 3.49887H38.8205Z" fill="white"/>
<path d="M58.4902 3.22799C56.2863 3.22799 54.757 4.33409 54.0149 6.11738H53.9474V3.49887H50.5741V20H53.9474V13.0248H54.0149C54.7121 14.6953 56.2863 15.8014 58.4227 15.8014C61.7061 15.8014 64 13.3183 64 9.48081C64 5.55305 61.5037 3.22799 58.4902 3.22799ZM53.925 9.81941V9.20993C53.925 7.33634 55.3193 5.73363 57.2983 5.73363C59.2323 5.73363 60.5367 7.26862 60.5367 9.48081C60.5367 11.7607 59.2323 13.2957 57.2983 13.2957C55.3193 13.2957 53.925 11.7607 53.925 9.81941Z" fill="white"/>
<path d="M35 40.7328H36.9412V23H35V40.7328Z" fill="white"/>
<path d="M44.6152 41C47.3049 41 49.2227 39.4696 50.1582 37.4534V38.3279C50.1582 40.004 51.1639 40.9757 52.6841 40.9757C53.3857 40.9757 54.0406 40.7814 54.485 40.5628V39.0081C54.1576 39.2024 53.7132 39.3725 53.3156 39.3725C52.3567 39.3725 52.0292 38.6194 52.0292 37.5263V32.085C52.0292 29.5344 50.2751 27.6397 46.954 27.6397C44.2644 27.6397 42.0425 28.8785 40.9433 31.9879L42.5805 32.6437C43.4458 30.166 44.7789 29.1215 46.8605 29.1215C48.9888 29.1215 50.1348 30.2632 50.1348 32.1822V32.3279L44.0539 34.0769C41.8788 34.7085 40.6626 35.7045 40.6626 37.6235C40.6626 39.1781 41.8554 41 44.6152 41ZM42.6039 37.332C42.6039 36.2146 43.3991 35.8016 44.9661 35.2915L50.1348 33.5911V35.8259C49.5033 37.8664 47.2815 39.3968 45.2233 39.3968C43.2587 39.3968 42.6039 38.3522 42.6039 37.332Z" fill="white"/>
<path d="M64.6402 27.6397C62.278 27.6397 60.3368 28.9514 59.5182 30.8947H59.4714V23H57.5302V40.7328H59.4714V37.7692H59.5182C60.3134 39.6883 62.278 41 64.5934 41C68.0548 41 70.6041 38.2794 70.6041 34.2955C70.6041 30.2875 68.008 27.6397 64.6402 27.6397ZM59.4246 34.6356V34.004C59.4246 31.3077 61.3892 29.1943 64.1022 29.1943C66.7451 29.1943 68.5927 31.2591 68.5927 34.2955C68.5927 37.3806 66.7451 39.4211 64.1022 39.4211C61.3892 39.4211 59.4246 37.3563 59.4246 34.6356Z" fill="white"/>
<path d="M74.5923 36.4332L73.0955 37.0648C73.9608 39.3968 75.902 41 79.4804 41C82.7314 41 85 39.4696 85 36.8947C85 34.3927 82.8483 33.6154 80.7434 33.3968C79.8312 33.2996 78.8957 33.2267 78.007 33.1296C76.5101 32.9595 75.7383 32.4737 75.7383 31.3563C75.7383 29.996 77.2586 29.1457 79.1062 29.1457C80.8369 29.1457 82.3104 29.8259 83.2459 31.4534L84.5322 30.4575C83.3628 28.4413 81.2813 27.6154 79.0594 27.6154C76.1125 27.6154 73.9141 29.1943 73.9141 31.5749C73.9141 33.9069 75.9488 34.6356 77.7029 34.83C78.6151 34.9271 79.574 35 80.4393 35.0972C82.0999 35.2672 83.1757 35.7773 83.1757 37.1134C83.1757 38.6194 81.5386 39.4696 79.5038 39.4696C76.9545 39.4696 75.3407 38.4008 74.5923 36.4332Z" fill="white"/>
<path d="M87 22.5C87 18.9101 89.9228 16 93.5283 16C97.1314 16 99.9152 18.8561 100 22.4719C100 23.6255 99.6044 24.5963 98.6152 25.5108C97.7794 26.2836 96.3544 26.3972 95.3088 25.8203C94.5625 25.3917 93.9874 24.4789 93.5 23.8084L92.5957 25.1872H90.6457L92.4826 22.4718L90.7022 19.7987H92.7087L93.5141 21.1775L94.3054 19.7987H96.3261L94.4891 22.4719C94.4891 22.4719 95.3652 23.8084 95.8457 24.329C96.3261 24.8496 97.2022 24.8636 97.7674 24.3009C98.3888 23.6821 98.5279 23.1894 98.5304 22.4719C98.5401 19.6944 96.3244 17.4632 93.5283 17.4632C90.7344 17.4632 88.4696 19.7183 88.4696 22.5C88.4696 25.2817 90.7344 27.5368 93.5283 27.5368C93.9147 27.5368 94.2851 27.5045 94.6446 27.4242L94.9554 28.8452C94.444 28.9594 94.0307 29 93.5283 29C89.9228 29 87 26.0899 87 22.5Z" fill="#FC4F37"/>
<rect x="17" y="41" width="14" height="2" fill="white"/>
</svg>
