<svg width="835" height="71" viewBox="0 0 835 71" fill="none" xmlns="http://www.w3.org/2000/svg">
<g clip-path="url(#clip0_21_130)">
<path d="M348.855 5.94669C349.998 5.38484 351.316 5.1433 352.609 5.18106C353.49 5.15388 354.369 5.2721 355.204 5.53002C356.584 5.97403 357.749 7.10359 357.903 8.45971C357.945 8.85854 357.945 9.26009 357.903 9.65893C357.804 10.5001 357.26 11.3009 356.44 11.7104C355.62 12.1199 354.681 12.2683 353.763 12.2416C354.406 11.1915 354.871 10.0092 354.82 8.79109C354.866 7.96882 354.647 7.10619 354.071 6.4571C353.855 6.21477 353.584 6.01686 353.278 5.8763C352.971 5.73573 352.636 5.65567 352.293 5.64135C351.421 5.6127 350.507 5.81908 349.829 6.33861C349.027 6.93497 348.467 7.7657 348.08 8.63289C347.547 9.78458 347.302 11.0235 347.09 12.252C346.782 14.0209 346.604 15.8048 346.443 17.5906C346.329 19.1316 346.19 20.6719 345.995 22.2065C345.804 23.4989 345.455 24.7678 344.955 25.9897C344.098 27.9688 342.679 29.7872 340.718 30.9714C339.579 31.6981 338.283 32.194 336.917 32.4259C336.062 32.576 335.192 32.6415 334.321 32.6212C333.184 32.6476 332.05 32.4963 330.969 32.1739C330.961 30.1967 330.963 28.2195 330.963 26.2423C330.955 25.1817 330.986 24.1205 330.932 23.0619C332.832 22.7559 334.767 22.461 336.672 22.1759C336.676 25.4128 336.633 28.655 336.648 31.8913C337.887 31.5124 338.971 30.765 339.782 29.8373C340.554 28.9349 341.155 27.9208 341.559 26.8373C342.217 25.1915 342.573 23.4591 342.796 21.724C342.939 20.5001 343.019 19.2703 343.1 18.0417C343.123 17.2266 343.2 16.4141 343.294 15.6029C343.503 14.116 343.803 12.6303 344.35 11.213C344.85 9.93627 345.54 8.70775 346.512 7.6752C347.189 6.99226 347.961 6.37637 348.855 5.94669Z" fill="white"/>
<path d="M358.379 10.8522C358.76 10.6901 359.198 10.6849 359.607 10.7383C360.431 10.9297 360.998 11.6986 360.99 12.4597C360.99 13.0788 360.654 13.6713 360.142 14.0684C359.469 14.6107 358.396 14.5241 357.708 14.0489C357.161 13.6973 357.018 13.0248 357.088 12.4525C357.165 11.7585 357.688 11.1374 358.379 10.8522Z" fill="white"/>
<path d="M362.448 20.4299C363.805 19.4201 365.385 18.5621 367.154 18.3798C368.072 18.3329 369.06 18.3218 369.877 18.7704C370.642 19.1936 371.042 19.9755 371.274 20.7339C371.54 20.2066 371.821 19.6851 372.099 19.1636C373.358 19.0985 374.616 19.008 375.875 18.9468C374.599 21.1521 373.354 23.3724 372.14 25.6076C370.824 28.0308 369.45 30.4253 367.997 32.7854C368.994 32.4904 369.952 32.0974 370.854 31.6135C372.938 30.4748 374.746 28.9598 376.347 27.3036C376.681 26.8531 376.936 26.3557 377.236 25.885C378.628 23.5894 380.003 21.2834 381.293 18.939C382.704 18.8856 384.115 18.8374 385.527 18.786C384.265 20.5959 382.993 22.3993 381.727 24.2059C381.408 24.6825 381.041 25.1337 380.756 25.6285C381.096 25.288 381.348 24.8856 381.654 24.5217C382.986 22.7749 384.485 21.105 386.33 19.7867C387.25 19.1298 388.277 18.5061 389.467 18.3817C390.006 18.355 390.574 18.3166 391.083 18.5184C391.815 18.7821 392.285 19.454 392.426 20.1395C392.569 21.0275 392.397 21.9429 392.003 22.7613C391.81 23.1962 391.536 23.5946 391.289 24.0054C390.503 25.2808 389.575 26.4755 388.738 27.7255C388.192 28.5373 387.595 29.3726 387.47 30.34C387.399 30.7437 387.428 31.2098 387.742 31.5276C388.028 31.7437 388.451 31.7593 388.783 31.6193C389.405 31.3746 389.95 30.995 390.475 30.6109C391.325 29.9338 392.092 29.1786 392.832 28.4039C394.722 26.4273 396.409 24.3023 398.118 22.1988C398.254 22.2671 398.391 22.3342 398.531 22.3986V22.4201C397.844 23.1845 397.231 24.0015 396.572 24.7854C395.643 25.949 394.67 27.0822 393.653 28.1851C392.744 29.1714 391.811 30.1454 390.752 31.0009C389.895 31.6923 388.867 32.2756 387.706 32.3876C387.108 32.411 386.479 32.4364 385.92 32.1988C385.355 31.9859 384.972 31.5126 384.73 31.0178C384.382 30.2938 384.425 29.4696 384.618 28.7144C384.866 27.7554 385.44 26.9071 385.975 26.0627C386.748 24.8733 387.647 23.7574 388.443 22.5809C388.931 21.8973 389.414 21.1688 389.51 20.3401C389.587 19.9039 389.325 19.3791 388.814 19.2938C388.165 19.1838 387.543 19.4729 387.028 19.8016C386.496 20.1541 385.998 20.5484 385.54 20.98C383.995 22.3472 382.708 23.9273 381.469 25.5256C379.898 27.566 378.455 29.6923 377.264 31.941C376.024 31.9468 374.784 32.0236 373.544 32.0367C374.206 30.8765 374.917 29.7404 375.587 28.5861C373.361 30.6545 370.746 32.4924 367.67 33.357C366.077 36.1096 364.027 38.704 361.303 40.6161C358.633 42.4996 355.29 43.6675 351.89 43.5959C350.842 43.6246 349.795 43.51 348.784 43.2561C347.592 42.9371 346.472 42.2795 345.807 41.3081C345.268 40.5529 345.075 39.633 345.108 38.743C345.078 37.6947 345.506 36.6784 346.298 35.9175C347.148 35.0887 348.369 34.6304 349.602 34.5438C350.433 34.4943 351.252 34.6415 352.076 34.7164C352.076 34.8192 352.076 34.9227 352.076 35.0269C350.921 35.0061 349.67 35.3908 348.999 36.2932C348.258 37.2365 348.142 38.4507 348.237 39.5738C348.354 40.5503 348.801 41.5269 349.601 42.204C350.401 42.8811 351.518 43.1936 352.595 43.1154C353.605 43.0751 354.595 42.8399 355.498 42.4253C356.964 41.7522 358.237 40.7704 359.338 39.6682C360.118 38.8936 360.84 38.0714 361.498 37.2072C363.14 35.1311 364.543 32.9104 365.906 30.6753C366.3 30.0289 366.75 29.4117 367.135 28.7613C366.897 28.9735 366.706 29.2261 366.485 29.4501C365.385 30.605 364.049 31.6343 362.448 32.1493C361.74 32.3895 360.975 32.4338 360.227 32.3837C359.897 32.3476 359.578 32.2522 359.289 32.103C359 31.9538 358.746 31.7538 358.543 31.5145C357.924 30.7662 357.607 29.8467 357.643 28.9104C357.62 28.3664 357.674 27.8219 357.803 27.2906C356.528 28.6278 355.253 29.9872 353.711 31.0796C352.817 31.6988 351.799 32.2229 350.677 32.3817C350.092 32.4169 349.469 32.4397 348.932 32.1864C348.324 31.9423 347.909 31.4052 347.735 30.8335C347.501 30.0627 347.62 29.2424 347.867 28.4898C348.232 27.4221 348.809 26.4292 349.38 25.4442C350.641 23.3075 351.993 21.2177 353.303 19.1083C354.578 19.0308 355.854 18.9813 357.13 18.913C355.987 20.7736 354.806 22.6128 353.643 24.4618C352.674 26.0308 351.692 27.6018 350.938 29.2697C350.702 29.8342 350.474 30.4501 350.621 31.0595C350.672 31.2873 350.794 31.5425 351.067 31.6057C351.487 31.6675 351.89 31.4996 352.259 31.3368C353.679 30.676 354.783 29.6031 355.879 28.5731C356.601 27.8622 357.276 27.1135 357.966 26.3765C358.164 26.1721 358.205 25.8915 358.323 25.648C359.192 23.6187 360.611 21.8234 362.448 20.4299V20.4299ZM368.007 18.8628C367.365 18.9624 366.767 19.2483 366.25 19.6037C365.473 20.1722 364.783 20.8328 364.198 21.5679C363.29 22.7213 362.547 23.9758 361.988 25.301C361.608 26.2164 361.283 27.1617 361.189 28.1415C361.145 28.9358 361.193 29.7691 361.595 30.4924C361.886 30.9735 362.54 31.1382 363.107 31.1278C363.875 31.1311 364.535 30.7079 365.09 30.2639C366.161 29.3895 366.985 28.2997 367.697 27.1708C368.508 25.8928 369.153 24.5334 369.62 23.12C369.865 22.3387 370.057 21.5256 370.001 20.7053C369.955 20.1623 369.883 19.5647 369.47 19.1428C369.094 18.7854 368.505 18.7756 368.007 18.8628V18.8628Z" fill="white"/>
<path d="M319.82 24.7756C321.708 24.4637 323.606 24.1896 325.495 23.8921C325.503 26.6486 325.495 29.4051 325.499 32.1603C323.605 32.1603 321.713 32.1603 319.818 32.1603C319.823 29.6985 319.823 27.2369 319.82 24.7756Z" fill="white"/>
<path d="M311.536 26.0462C312.521 25.8841 313.511 25.737 314.499 25.5859V32.1615H311.537C311.534 30.1215 311.533 28.0831 311.536 26.0462Z" fill="white"/>
<path d="M319.82 6.80322C321.713 6.80322 323.606 6.80322 325.498 6.80322C325.498 10.7064 325.498 14.6096 325.498 18.5129C326.141 17.7661 326.92 17.0845 327.886 16.701C329.088 16.2101 330.451 16.1672 331.743 16.3162C332.975 16.4868 334.194 16.951 335.064 17.783C335.835 18.462 336.354 19.3446 336.546 20.3065C336.683 20.9224 336.688 21.5519 336.678 22.1776C334.774 22.4627 332.869 22.7524 330.969 23.0584L330.938 23.0636C330.883 22.3371 330.679 21.5415 330.04 21.0519C329.629 20.714 329.055 20.6287 328.521 20.6216C327.856 20.6216 327.164 20.7563 326.637 21.1515C325.862 21.7531 325.55 22.714 325.527 23.6151C325.518 23.7069 325.505 23.7993 325.497 23.8924C323.606 24.1912 321.711 24.464 319.822 24.7759L319.82 6.80322Z" fill="white"/>
<path d="M311.538 11.4907H314.499V16.6014C315.582 16.6014 316.666 16.6014 317.75 16.6014C317.75 18.1205 317.75 19.6396 317.75 21.1587C316.666 21.1587 315.583 21.1587 314.499 21.1587V25.5858C313.511 25.7368 312.521 25.884 311.536 26.0461C311.536 21.1945 311.537 16.3427 311.538 11.4907Z" fill="white"/>
<path d="M291.464 8.91943H304.892C304.892 10.6443 304.892 12.3693 304.892 14.0946H297.606V17.9038H304.5V23.047C302.202 23.047 299.904 23.047 297.606 23.047C297.068 23.0112 296.552 22.8517 296.027 22.7521C294.505 22.4383 292.99 22.0952 291.464 21.7944C291.464 17.5023 291.464 13.2107 291.464 8.91943Z" fill="white"/>
<path d="M308.821 16.6014C308.821 14.8978 308.821 13.1943 308.821 11.4907H311.535C311.528 16.3423 311.528 21.1941 311.535 26.0461C310.629 25.8644 309.731 25.647 308.821 25.4868C308.821 24.0441 308.821 22.6014 308.821 21.1587H307.035C307.035 19.6396 307.035 18.1205 307.035 16.6014H308.821Z" fill="white"/>
<path d="M291.464 21.793C292.99 22.0938 294.505 22.4369 296.027 22.7507C296.552 22.8535 297.068 23.0111 297.606 23.0456C297.606 24.3698 297.606 25.6936 297.606 27.0169H304.892V32.1927H291.464C291.464 28.7261 291.464 25.2595 291.464 21.793Z" fill="white"/>
<path d="M308.821 25.4868C309.732 25.647 310.629 25.8644 311.535 26.0461C311.535 28.086 311.535 30.1244 311.535 32.1613H308.821C308.821 29.9369 308.821 27.7121 308.821 25.4868Z" fill="white"/>
</g>
<path fill-rule="evenodd" clip-rule="evenodd" d="M465.635 0.0641765C464.522 0.123262 462.884 0.321789 462.794 0.408401C462.761 0.440585 462.696 0.452333 462.65 0.434677C462.604 0.416951 462.194 0.482918 461.74 0.581139C455.446 1.94177 449.943 5.65553 446.323 10.985C442.161 17.1123 440.936 24.6712 442.946 31.817C444.352 36.8156 447.358 41.3231 451.464 44.5927C459.276 50.8117 470.148 51.7521 478.927 46.9681C483.779 44.3236 487.762 39.9803 489.911 34.9905C490.496 33.6308 491.275 31.2528 491.339 30.6315C491.352 30.5029 491.384 30.363 491.41 30.3208C491.437 30.2786 491.47 30.1233 491.485 29.9758C491.5 29.8283 491.531 29.6607 491.553 29.6033C491.656 29.3425 491.88 27.4356 491.942 26.3015C492.189 21.7498 491.135 17.1014 488.943 13.0796C488.431 12.1396 487.62 10.8696 487.089 10.1747C486.914 9.94527 486.747 9.7263 486.719 9.68807C484.441 6.62981 480.66 3.68625 476.966 2.09567C475.541 1.48243 473.201 0.723222 472.582 0.673451C472.431 0.661356 472.292 0.62938 472.271 0.60234C472.251 0.5753 472.095 0.544019 471.924 0.532828C471.753 0.521636 471.598 0.49258 471.578 0.46832C471.468 0.328323 467.723 -0.0375894 466.817 0.0031448C466.702 0.00828871 466.17 0.035746 465.635 0.0641765ZM552.143 4.6118C549.273 5.08748 546.98 6.77315 545.811 9.26745C544.969 11.0648 544.839 13.4759 545.478 15.4324C546.299 17.947 548.364 19.9237 550.956 20.6784C552.76 21.2035 554.922 21.1724 556.653 20.5963C558.698 19.9154 560.231 18.663 561.3 16.7977C561.648 16.1912 562.073 15.0524 562.112 14.627C562.123 14.5027 562.158 14.3587 562.19 14.307C562.308 14.1152 562.313 12.0169 562.197 11.3469C561.743 8.74097 560.183 6.62814 557.843 5.45033C556.967 5.00948 555.531 4.56551 555.348 4.67888C555.312 4.70085 555.271 4.68243 555.256 4.63794C555.214 4.51032 552.874 4.49071 552.143 4.6118ZM612.306 4.6061C611.42 4.7525 610.691 4.9782 609.926 5.34286C607.37 6.56051 605.77 8.70823 605.36 11.4719C604.688 15.9994 607.388 19.9107 611.854 20.8775C612.141 20.9395 612.845 21.0084 613.418 21.0305C616.024 21.131 618.175 20.3654 619.776 18.7678L620.294 18.2503L619.498 17.4947C619.06 17.0792 618.537 16.5955 618.336 16.4199L617.971 16.1007L617.463 16.5785C616.865 17.1408 616.367 17.4509 615.666 17.697C615.247 17.8438 614.99 17.8818 614.231 17.9088C613.202 17.9453 612.7 17.8751 611.993 17.596C610.523 17.0154 609.473 15.7982 609.073 14.2126C608.881 13.45 608.881 12.1146 609.073 11.3501C609.429 9.92949 610.337 8.77489 611.576 8.16694C612.466 7.73012 613.038 7.61758 614.183 7.65421C614.937 7.67826 615.179 7.71462 615.643 7.87339C616.336 8.11077 617.05 8.5505 617.574 9.06281L617.977 9.45646L618.709 8.77287C619.112 8.39688 619.633 7.91426 619.868 7.7003L620.295 7.31138L619.915 6.91363C618.869 5.81819 617.436 5.03854 615.816 4.68389C615.107 4.52853 613.051 4.483 612.306 4.6061ZM507.516 12.7825V20.7776L509.306 20.7591L511.096 20.7405L511.131 18.5509L511.166 16.3612L513.494 16.3231C516.024 16.2816 516.375 16.2386 517.479 15.8359C518.931 15.3058 519.967 14.4134 520.581 13.1637C521.006 12.2984 521.098 11.8608 521.101 10.696C521.103 9.24549 521.018 8.84134 520.492 7.81124C520.274 7.38499 520.061 7.10806 519.578 6.62536C519.018 6.06649 518.858 5.95137 518.15 5.6027C516.611 4.84439 516.135 4.78746 511.334 4.78746H507.516V12.7825ZM527.049 6.23978C527.049 7.49997 527.064 7.69766 527.159 7.73429C527.22 7.75751 528.892 7.77649 530.875 7.77649C534.739 7.77649 534.919 7.78997 535.645 8.13176C536.564 8.56482 537.059 9.41419 537.059 10.557C537.059 12.1008 536.215 13.0674 534.633 13.3352C534.419 13.3715 532.633 13.4102 530.664 13.4214L527.084 13.4417L527.066 17.1085L527.048 20.7753H528.855H530.662L530.68 18.5683L530.699 16.3612L532.402 16.3461L534.105 16.3309L535.599 18.55L537.094 20.769L538.988 20.7721C540.03 20.7739 540.882 20.7566 540.882 20.7338C540.882 20.6526 540.643 20.2887 540.589 20.2887C540.559 20.2887 540.535 20.2601 540.535 20.2253C540.535 20.1684 538.896 17.7315 538.801 17.6472C538.675 17.5356 537.546 15.7777 537.547 15.6957C537.548 15.6412 537.775 15.4715 538.051 15.3186C538.379 15.137 538.774 14.8226 539.188 14.4127C539.733 13.8726 539.866 13.6929 540.137 13.1267C540.569 12.2279 540.693 11.6394 540.689 10.5222C540.684 9.51227 540.546 8.83571 540.19 8.0733C539.529 6.6613 538.275 5.64197 536.575 5.13572C535.524 4.82277 534.96 4.78829 530.89 4.78788L527.049 4.78746V6.23978ZM569.468 6.22984L569.486 7.67222L572.232 7.70697L574.978 7.74173V11.982C574.978 15.8868 574.968 16.2525 574.852 16.6045C574.66 17.1893 574.326 17.5986 573.853 17.8309C573.488 18.0104 573.376 18.0301 572.701 18.0351C572.29 18.0382 571.954 18.0197 571.954 17.994C571.954 17.9683 571.831 17.9105 571.681 17.8655C571.215 17.726 570.409 17.1282 570.05 16.6567C569.941 16.5133 569.827 16.396 569.795 16.396C569.729 16.396 567.853 18.6754 567.853 18.7557C567.853 18.867 568.429 19.4583 568.846 19.7736C569.414 20.2046 570.392 20.6654 571.123 20.8471C571.501 20.9411 572.046 21.0067 572.649 21.0312C575.446 21.1444 577.369 20.0622 578.14 17.9405C578.547 16.8207 578.557 16.6406 578.557 10.4353L578.558 4.78746H574.003H569.449L569.468 6.22984ZM586.969 6.21246V7.63746H593.051H599.133V6.21246V4.78746H593.051H586.969V6.21246ZM625.564 6.2646L625.583 7.74173L628.085 7.77649L630.588 7.81124L630.605 14.2944L630.623 20.7776L632.413 20.7591L634.202 20.7405L634.22 14.2594L634.238 7.77822L636.722 7.76001L639.207 7.74173L639.226 6.2646L639.245 4.78746H632.395H625.545L625.564 6.2646ZM555.01 7.77197C555.971 8.01776 556.908 8.60292 557.499 9.32612C559.324 11.5611 558.967 15.26 556.766 16.9326C555.778 17.6827 554.852 17.9584 553.476 17.9111C552.723 17.8852 552.508 17.8504 551.996 17.6712C550.559 17.1685 549.531 16.1198 548.99 14.6068C548.778 14.0126 548.772 13.9684 548.772 12.7814C548.772 11.5944 548.778 11.5501 548.99 10.9559C549.295 10.1012 549.59 9.63462 550.232 8.99086C550.846 8.37443 551.604 7.93768 552.386 7.74938C553.022 7.59645 554.369 7.60806 555.01 7.77197ZM515.409 7.88298C516.692 8.21267 517.4 9.0268 517.507 10.2925C517.632 11.7882 516.879 12.8569 515.423 13.2488C515.067 13.3446 514.643 13.3664 513.077 13.369L511.166 13.3722L511.148 10.5744L511.129 7.77649H513.062C514.571 7.77649 515.085 7.79984 515.409 7.88298ZM586.985 12.6597L587.003 14.0673H593.051H599.099L599.117 12.6597L599.136 11.2521H593.051H586.966L586.985 12.6597ZM476.745 14.3156C477.135 14.4241 477.527 14.8106 477.664 15.2234C477.812 15.6697 477.755 16.0751 477.487 16.4758C477.376 16.6422 473.051 21.0101 467.877 26.1822C462.702 31.3543 458.486 35.6056 458.507 35.6296C458.528 35.6536 458.512 35.6542 458.471 35.631C458.43 35.6079 458.263 35.6349 458.1 35.6911C457.797 35.7955 457.121 35.8008 457.12 35.6989C457.12 35.668 457.096 35.6578 457.066 35.6762C457.036 35.6946 456.872 35.5595 456.701 35.3761C456.278 34.9225 456.243 34.8699 456.272 34.7298C456.285 34.663 456.27 34.6082 456.239 34.6082C456.207 34.6082 456.182 34.4987 456.182 34.3649C456.182 34.2311 456.205 34.1216 456.234 34.1216C456.262 34.1216 456.286 34.0732 456.286 34.0139C456.286 33.9546 456.336 33.8061 456.397 33.6837C456.506 33.4652 475.036 14.858 475.428 14.5726C475.846 14.2691 476.275 14.1852 476.745 14.3156ZM465.493 15.0997C466.138 15.4494 466.379 16.2891 466.035 16.9869C465.898 17.2648 459.465 23.7247 459.07 23.9809C458.9 24.0911 458.689 24.1814 458.601 24.1814C458.513 24.1814 458.441 24.2126 458.441 24.2509C458.441 24.2891 458.378 24.3204 458.302 24.3204C458.225 24.3204 458.163 24.2857 458.163 24.2434C458.163 24.1959 458.096 24.183 457.989 24.2099C457.893 24.2339 457.815 24.2243 457.815 24.1885C457.815 24.1527 457.68 24.0716 457.514 24.0083C457.258 23.9105 457.189 23.8399 457.053 23.5334C456.965 23.3354 456.899 23.1187 456.906 23.0518C456.914 22.9849 456.89 22.9301 456.852 22.9301C456.781 22.9301 456.782 22.8035 456.854 22.6869C456.878 22.6486 456.908 22.5235 456.922 22.4088C456.935 22.2941 457.008 22.1221 457.083 22.0265C457.365 21.6695 463.699 15.3423 463.948 15.1691C464.425 14.8377 464.966 14.8133 465.493 15.0997ZM586.969 19.3152V20.7753H593.052H599.136L599.117 19.3329L599.099 17.8905L593.034 17.8728L586.969 17.855V19.3152ZM476.242 25.8724C476.67 26.0981 476.946 26.5118 476.985 26.9864C477.046 27.7193 477.14 27.6041 473.43 31.3258C471.174 33.5883 469.919 34.7977 469.732 34.8883C469.386 35.0557 468.884 35.0652 468.535 34.9108C468.393 34.8478 468.235 34.7876 468.183 34.777C468.069 34.7532 468.087 34.7793 467.9 34.3828C467.742 34.0511 467.596 33.2875 467.69 33.2875C467.718 33.2875 467.761 33.2014 467.787 33.0963C467.852 32.8271 474.639 26.022 475.019 25.8438C475.405 25.6633 475.867 25.6741 476.242 25.8724ZM513.077 29.0925C511.263 29.3701 509.393 30.3329 508.2 31.6024C506.769 33.1259 506.057 35.0042 506.057 37.2528C506.057 40.4385 507.6 43.0472 510.369 44.5401C512.459 45.6669 515.493 45.8313 518.164 44.9625C518.946 44.708 519.902 44.2504 520.515 43.8366L520.967 43.5317L520.985 40.2864L521.003 37.0411H519.37H517.736L517.718 39.3872L517.7 41.7332L517.317 41.921C516.665 42.2418 515.863 42.4002 514.919 42.3948C513.69 42.3877 513.174 42.2751 512.295 41.8219C510.483 40.887 509.462 38.8021 509.726 36.5716C509.88 35.2661 510.29 34.3961 511.161 33.5269C512.154 32.5358 513.263 32.1071 514.836 32.1062C515.798 32.1057 516.441 32.231 517.156 32.5585C517.746 32.8287 518.202 33.1321 518.656 33.5555L518.987 33.8641L519.421 33.4539C519.66 33.2282 520.162 32.7555 520.538 32.4033C521.092 31.8834 521.212 31.736 521.176 31.6204C521.085 31.334 519.778 30.3167 518.988 29.917C518.453 29.6461 517.737 29.385 517.66 29.4325C517.625 29.4545 517.596 29.4451 517.596 29.4116C517.596 29.3404 516.798 29.1467 516.101 29.0488C515.408 28.9514 513.852 28.9739 513.077 29.0925ZM528.718 37.1121C526.825 41.4324 525.267 45.0295 525.254 45.1054C525.233 45.2403 525.275 45.2436 527.036 45.2436H528.841L529.344 44.0097C529.62 43.3311 530.369 41.509 531.008 39.9606C531.647 38.4123 532.541 36.2292 532.996 35.1094C533.698 33.3821 533.844 33.0765 533.955 33.0935C534.06 33.1096 534.594 34.3588 536.557 39.1786L539.027 45.2436H540.854C541.859 45.2436 542.696 45.2201 542.713 45.1914C542.731 45.1627 541.176 41.5733 539.258 37.2149L535.771 29.2905L533.965 29.2738L532.158 29.2569L528.718 37.1121ZM548.561 29.3426C548.542 29.3905 548.536 32.9799 548.545 37.3192L548.563 45.2088L554.317 45.2266L560.07 45.2444L560.052 43.7668L560.033 42.2893L556.105 42.2545L552.178 42.2198L552.16 35.7378L552.142 29.2558H550.368C549.012 29.2558 548.586 29.2763 548.561 29.3426ZM571.651 29.4817C571.598 29.606 570.034 33.174 568.175 37.4106C566.316 41.6473 564.794 45.1435 564.794 45.1798C564.794 45.2203 565.497 45.2387 566.612 45.2274L568.429 45.2088L569.532 42.5326C570.139 41.0607 571.253 38.3433 572.007 36.4939C572.762 34.6446 573.42 33.1156 573.471 33.096C573.521 33.0764 573.593 33.0915 573.631 33.1295C573.669 33.1673 574.801 35.9008 576.147 39.2036L578.595 45.2088L580.461 45.2274C582.217 45.2447 582.326 45.2386 582.296 45.1231C582.278 45.0555 580.705 41.4578 578.8 37.128L575.337 29.2558H573.542H571.747L571.651 29.4817ZM585.536 29.364C585.606 29.5462 588.992 34.3301 589.051 34.3301C589.081 34.3301 589.58 33.7481 590.159 33.0365L591.213 31.743L591.089 31.5543C591.021 31.4506 590.637 30.8923 590.236 30.3137L589.506 29.2615L587.5 29.2587C585.712 29.2561 585.499 29.2675 585.536 29.364ZM594.938 31.85C593.634 33.7575 592.861 34.8082 592.019 35.8192C591.264 36.7253 589.911 38.5394 588.052 41.1374C586.5 43.3061 585.231 45.1172 585.231 45.162C585.231 45.2225 585.748 45.2436 587.233 45.2436H589.236L591.085 42.4805C592.208 40.8019 593.352 39.1869 594 38.3659C595.178 36.8731 600.529 29.391 600.478 29.308C600.46 29.2793 599.606 29.2558 598.578 29.2558H596.711L594.938 31.85ZM605.574 29.3082C605.556 29.3371 606.899 31.6537 608.559 34.456L611.576 39.5514V42.3986V45.2459L613.366 45.2274L615.156 45.2088L615.191 42.3241L615.225 39.4393L618.173 34.4692C619.795 31.7356 621.136 29.4438 621.153 29.3762C621.184 29.2608 621.081 29.2544 619.461 29.2719L617.737 29.2905L615.71 32.7167C614.596 34.6011 613.647 36.1794 613.603 36.2241C613.541 36.286 613.498 36.2812 613.422 36.204C613.368 36.1483 612.427 34.5856 611.331 32.7314C610.235 30.8771 609.302 29.337 609.258 29.3089C609.152 29.2413 605.616 29.2406 605.574 29.3082ZM596.005 41.1861C595.451 41.8959 595.007 42.5092 595.018 42.549C595.029 42.5888 595.436 43.2101 595.922 43.9296L596.805 45.238L598.838 45.2408C600.169 45.2426 600.871 45.2192 600.871 45.173C600.871 45.1173 600.401 44.4281 600.09 44.0271C600.06 43.9889 599.795 43.6135 599.501 43.193C599.207 42.7724 598.941 42.397 598.909 42.3588C598.878 42.3206 598.473 41.7497 598.01 41.0902C597.546 40.4307 597.132 39.8921 597.09 39.8933C597.048 39.8945 596.56 40.4763 596.005 41.1861Z" fill="white"/>
<path fill-rule="evenodd" clip-rule="evenodd" d="M706.519 39.3932C697.822 39.3932 690.84 32.3763 690.84 23.6359C690.84 14.8955 697.822 7.87863 706.519 7.87863C715.216 7.87863 722.198 14.8955 722.198 23.6359C722.198 32.3763 715.216 39.3932 706.519 39.3932ZM706.519 0C719.503 0 730.038 10.5869 730.038 23.6359C730.038 36.6849 719.503 47.2718 706.519 47.2718C693.535 47.2718 683 36.6849 683 23.6359C683 10.5869 693.535 0 706.519 0ZM728.935 48.5028C730.528 50.1032 730.528 52.5652 728.935 54.0425L713.256 69.7997C711.664 71.4001 709.214 71.4001 707.744 69.7997C706.151 68.1994 706.151 65.7373 707.744 64.2601L723.423 48.5028C724.893 46.9025 727.465 46.9025 728.935 48.5028ZM738 3.93932C738 6.15519 736.285 7.87863 734.08 7.87863C731.875 7.87863 730.16 6.15519 730.16 3.93932C730.16 1.72346 731.875 0 734.08 0C736.163 0 738 1.72346 738 3.93932Z" fill="white"/>
<path fill-rule="evenodd" clip-rule="evenodd" d="M763.957 11.2281L763.997 22.4562H766.018H768.038L768.116 17.9494C768.189 13.7085 768.213 13.4059 768.529 12.821C769.775 10.5107 772.481 10.2246 773.687 12.2754L774.099 12.9764L774.148 17.7547C774.205 23.3274 773.917 22.7289 776.507 22.6569L778.139 22.6116L778.138 17.1724L778.136 11.7331L777.68 10.6453C776.732 8.38804 775.016 7.28186 772.462 7.28186C770.734 7.28186 769.557 7.73689 768.426 8.84151C768.219 9.04385 768.189 8.56271 768.152 4.53459L768.111 0H766.014H763.918L763.957 11.2281ZM752.057 3.52259C752 3.57947 751.953 4.48859 751.953 5.54286V7.45949H750.723C748.918 7.45949 749.001 7.36966 749.001 9.32436C749.001 11.2791 748.918 11.1892 750.723 11.1892H751.953L751.956 14.2585C751.958 15.9467 752.023 17.7676 752.101 18.3051C752.365 20.1336 753.31 21.4474 754.906 22.2055C755.661 22.5643 755.99 22.6175 757.73 22.6625C760.418 22.7322 760.345 22.787 760.345 20.6914V19.0153L759.061 19.0826C757.997 19.1386 757.685 19.0985 757.235 18.8489C756.31 18.3348 756.233 18.0126 756.177 14.4139L756.127 11.1892H758.236H760.345V9.40206V7.61489H758.334C757.009 7.61489 756.286 7.55506 756.215 7.43959C756.13 7.3033 756.008 5.16958 755.995 3.61319C755.994 3.46835 755.506 3.41893 754.077 3.41893C753.023 3.41893 752.114 3.46555 752.057 3.52259ZM788.396 7.30672C785.306 7.72632 782.913 9.787 782.044 12.7764C781.721 13.8889 781.714 16.145 782.031 17.2606C782.864 20.1925 784.731 21.9607 787.826 22.7494C790.426 23.4121 793.416 22.6207 795.459 20.7288C796.356 19.8985 797.433 18.1611 797.242 17.8524C797.196 17.7775 796.258 17.7163 795.158 17.7163H793.157L792.85 18.148C792.002 19.3386 789.378 19.7586 787.794 18.9573C786.65 18.3791 785.934 17.3447 785.913 16.2399C785.911 16.1403 788.004 16.0565 791.737 16.0068L797.565 15.9291L797.518 14.919C797.392 12.1748 796.211 9.89936 794.227 8.5739C792.598 7.48653 790.473 7.02466 788.396 7.30672ZM791.235 10.9808C792.149 11.4158 792.825 12.2465 792.825 12.9347V13.3649H789.484H786.143V12.8992C786.143 12.5812 786.323 12.2334 786.712 11.8031C787.389 11.0536 787.679 10.8828 788.707 10.6281C789.644 10.3959 790.157 10.4674 791.235 10.9808ZM820.332 32.0913V43.3583H822.352H824.372L824.374 39.3566C824.376 35.1359 824.484 34.2563 825.124 33.2197C825.542 32.5437 826.22 32.0585 827.061 31.8335C828.454 31.4612 829.88 32.2825 830.269 33.68C830.365 34.0261 830.432 36.0874 830.432 38.7039C830.433 41.9466 830.484 43.1909 830.62 43.3272C830.861 43.5682 834.255 43.587 834.402 43.348C834.459 43.2569 834.496 40.8618 834.485 38.0253C834.467 33.2656 834.441 32.7933 834.145 31.8943C833.289 29.2901 831.505 28.0484 828.646 28.066C827.107 28.0755 826.339 28.3331 825.236 29.2092C824.912 29.467 824.585 29.64 824.509 29.5933C824.434 29.5469 824.372 27.5549 824.372 25.1666V20.8244H822.352H820.332V32.0913ZM755.295 28.1075C754.204 28.3063 752.974 28.989 751.904 29.9898C749.356 32.3731 748.774 35.9608 750.386 39.3435C750.859 40.3355 752.157 41.694 753.244 42.3349C755.374 43.5903 758.575 43.4252 760.226 41.975C760.528 41.71 760.818 41.4934 760.871 41.4934C760.924 41.4934 760.965 42.0703 760.963 42.7755C760.958 44.7021 760.39 45.7256 758.993 46.3245C758.209 46.6606 756.826 46.7028 756.032 46.4148C755.427 46.1954 754.672 45.5114 754.353 44.894C754.225 44.6477 754 44.4407 753.853 44.434C753.448 44.4155 750.829 44.413 750.495 44.4306C750.237 44.4442 750.213 44.5325 750.3 45.1619C750.517 46.7447 751.948 48.4641 753.709 49.2582C756.088 50.331 759.349 50.232 761.744 49.0141C762.466 48.6467 763.812 47.2886 764.12 46.616C764.985 44.7263 764.919 45.4726 765.005 36.6758C765.049 32.1885 765.085 28.5063 765.085 28.4932C765.085 28.4329 764.168 28.4063 762.637 28.422L760.967 28.4393V29.0609C760.967 29.4028 760.924 29.6825 760.871 29.6825C760.818 29.6825 760.451 29.4454 760.055 29.1556C759.659 28.8659 759.071 28.5189 758.748 28.3847C758.056 28.0972 756.178 27.9465 755.295 28.1075ZM786.764 28.1192C784.436 28.5245 782.702 29.959 781.495 32.4798L780.937 33.6454L780.95 35.8211C780.965 38.2174 781.124 38.8464 782.132 40.5097C783.095 42.0987 784.642 43.1761 786.581 43.6075C787.6 43.8343 787.894 43.8427 788.776 43.6705C789.873 43.4563 790.735 43.0838 791.553 42.4701C791.837 42.2575 792.097 42.1124 792.132 42.1473C792.167 42.1825 792.251 42.4759 792.318 42.7996L792.44 43.3879L794.232 43.4022C795.218 43.4102 796.108 43.3643 796.212 43.3006C796.354 43.2125 796.399 41.4106 796.399 35.8301V28.4755L796.031 28.4051C795.73 28.3474 792.889 28.3611 792.475 28.422C792.411 28.4315 792.359 28.6799 792.359 28.974C792.359 29.7006 792.136 29.7842 791.54 29.2807C790.389 28.3078 788.424 27.8301 786.764 28.1192ZM808.443 28.1134C807.572 28.2781 806.677 28.6856 806.005 29.2233C805.689 29.4758 805.357 29.6825 805.267 29.6825C805.176 29.6825 805.102 29.4028 805.102 29.0609V28.4393H803.081H801.059L801.099 39.0457L801.139 49.6522L803.121 49.6957L805.102 49.7392V45.9271C805.102 43.3455 805.155 42.115 805.267 42.115C805.357 42.115 805.753 42.3602 806.145 42.6599C807.422 43.6347 809.178 43.9827 810.875 43.5968C812.363 43.2583 813.306 42.7287 814.321 41.6631C815.929 39.9727 816.602 38.2575 816.602 35.8484C816.602 32.6099 815.05 30.0069 812.329 28.6803C811.153 28.1072 809.642 27.8868 808.443 28.1134ZM776.352 28.4126C775.414 28.7613 774.898 29.1294 774.467 29.7571C774.27 30.0451 774.054 30.2468 773.987 30.2056C773.92 30.1643 773.866 29.75 773.866 29.2849V28.4393H771.845H769.825V35.8806C769.825 42.8398 769.843 43.3261 770.097 43.3855C770.247 43.4204 771.138 43.4111 772.078 43.3648L773.788 43.2806L773.88 39.0846C773.931 36.7768 774.024 34.7138 774.086 34.5001C774.29 33.8002 775.019 32.9027 775.653 32.5715C776.301 32.2327 777.514 32.142 778.489 32.3594L778.994 32.4721V30.4611C778.994 28.632 778.967 28.4357 778.693 28.2893C778.256 28.0554 777.157 28.1132 776.352 28.4126ZM758.595 31.896C759.548 32.1448 760.815 33.3582 761.089 34.285C761.543 35.8229 761.223 37.3583 760.242 38.3399C759.393 39.1901 758.685 39.4731 757.406 39.4731C756.512 39.4731 756.252 39.4032 755.526 38.968C754.125 38.1282 753.554 36.9294 753.716 35.1679C753.855 33.6594 754.679 32.5647 756.089 32.0141C756.989 31.6627 757.591 31.6343 758.595 31.896ZM790.613 32.213C793.392 33.6685 793.192 38.4916 790.303 39.6988C789.511 40.0296 787.93 40.0034 787.144 39.6462C785.908 39.0848 784.899 37.3852 784.899 35.8643C784.899 34.7583 785.35 33.7178 786.194 32.8772C786.636 32.4374 787.242 31.9961 787.541 31.8968C788.362 31.6239 789.763 31.7681 790.613 32.213ZM810.319 32.1381C811.101 32.5411 811.859 33.3326 812.165 34.0678C812.524 34.929 812.481 36.8844 812.083 37.7636C811.43 39.2063 810.282 39.9393 808.676 39.9393C807.488 39.9393 806.546 39.5236 805.825 38.681C804.363 36.9733 804.475 34.4819 806.086 32.8772C806.528 32.4374 807.134 31.9961 807.433 31.8968C808.189 31.6456 809.591 31.763 810.319 32.1381Z" fill="white"/>
<path fill-rule="evenodd" clip-rule="evenodd" d="M0 25V50H9.34343H18.6869V44.8569C18.6869 38.7407 18.6726 38.7988 20.4057 37.8749C20.9758 37.5712 21.3678 37.5421 24.8951 37.5421C29.1667 37.5421 29.7414 37.6535 30.6589 38.6591C31.4222 39.4956 31.4815 39.9633 31.4815 45.1429V50H40.8249H50.1684V43.8552V37.7104L42.4663 37.7084C34.3359 37.7064 33.488 37.638 32.5076 36.9059C31.516 36.1657 31.4015 35.83 31.3419 33.4901L31.2864 31.3131H26.4239C21.9158 31.3131 21.4934 31.2877 20.6283 30.964C19.9938 30.7266 19.5473 30.421 19.2332 30.0094L18.771 29.404L18.7209 25.1488C18.6741 21.1768 18.6931 20.8498 19.0059 20.2369C19.381 19.5015 19.8423 19.1471 20.9077 18.7761C21.4867 18.5744 22.6093 18.5229 26.4731 18.521L31.3131 18.5185V16.4391C31.3131 14.5596 31.3497 14.3061 31.6919 13.803C32.1956 13.063 32.7965 12.6369 33.5988 12.4507C33.9621 12.3665 37.8387 12.2958 42.2138 12.2936L50.1684 12.2896V6.14478V0H40.8249H31.4815V4.9936C31.4815 9.97525 31.4805 9.98889 31.0732 10.6838C30.8002 11.1497 30.3678 11.5451 29.7685 11.8771L28.8721 12.3737H25C21.2066 12.3737 21.1109 12.3652 20.2862 11.9529C19.6985 11.6589 19.331 11.3288 19.0684 10.8586C18.7027 10.2035 18.6923 10.0468 18.6896 5.09259L18.6869 0H9.34343H0V25ZM62.963 25V50H72.3056H81.6481L81.6911 34.3013L81.734 18.6027L86.586 18.5581C91.7412 18.5106 92.3397 18.5808 93.4391 19.3636C94.4886 20.1109 94.4444 19.4057 94.4444 35.421V50H103.788H113.131V34.3434V18.6869H105.054C96.3482 18.6869 96.1488 18.6685 95.1382 17.7774C94.2843 17.0244 94.2761 16.9327 94.2761 8.17037V0H78.6195H62.963V25ZM125.926 25V50H135.354H144.781V34.2524V18.5045L149.874 18.5537C154.923 18.6022 154.974 18.6062 155.808 19.0236C156.28 19.2599 156.815 19.6953 157.028 20.0165L157.407 20.5886V35.2943V50H166.751H176.094V34.3434V18.6869H167.959H159.825L158.919 18.2239C157.218 17.354 157.33 18.0244 157.275 8.40539L157.227 0H141.577H125.926V25ZM188.889 6.06061V12.1212L202.82 12.1237C214.524 12.1258 216.92 12.166 217.808 12.3754C219.776 12.8396 220.37 13.5609 220.37 15.4882C220.37 17.0386 220.026 17.651 218.816 18.254L217.947 18.6869H203.418H188.889V24.9158V31.1448H203.279C219.396 31.1448 218.545 31.0818 219.739 32.3626C220.351 33.0192 220.37 33.0783 220.37 34.2892C220.37 35.7093 220.13 36.3205 219.354 36.8729C218.193 37.6995 218.062 37.7062 202.988 37.7084L188.889 37.7104V43.8552V50H204.545H220.202V44.9411C220.202 39.6056 220.229 39.3955 221.022 38.4929C221.784 37.6249 221.71 37.6322 230.724 37.5421L239.141 37.4579L239.185 24.9692L239.228 12.4806L230.935 12.4271C222.82 12.3749 222.629 12.366 221.97 12.0113C221.162 11.5766 220.625 11.0264 220.382 10.3847C220.269 10.088 220.202 8.05673 220.202 4.95539V0H204.545H188.889V6.06061ZM241.498 43.9943C240.028 44.5695 239.303 45.7071 239.43 47.2396C239.704 50.5354 244.323 50.966 245.376 47.7938C245.894 46.2333 244.969 44.5419 243.283 43.9663C242.586 43.7286 242.16 43.7354 241.498 43.9943ZM243.854 44.7113C245.043 45.4911 245.386 47.2916 244.552 48.3847C243.97 49.1481 243.305 49.495 242.424 49.495C241.559 49.495 240.876 49.148 240.351 48.4429C239.812 47.7192 239.682 47.101 239.9 46.2924C240.095 45.5672 241.058 44.5116 241.641 44.3845C242.251 44.2514 243.414 44.4231 243.854 44.7113ZM241.246 46.7779C241.246 48.3726 241.268 48.4849 241.583 48.4849C241.863 48.4849 241.919 48.3726 241.919 47.8114C241.919 47.3293 241.99 47.138 242.168 47.138C242.305 47.138 242.572 47.4411 242.761 47.8114C242.987 48.2545 243.218 48.4849 243.438 48.4849C243.869 48.4849 243.858 48.3231 243.379 47.6177L242.987 47.0401L243.379 46.7446C243.818 46.4136 243.878 46.0022 243.554 45.5581C243.403 45.3519 243.016 45.2317 242.291 45.1658L241.246 45.071V46.7779ZM242.902 46.0236C242.968 46.3692 242.676 46.6264 242.214 46.6305C241.997 46.6323 241.919 46.4971 241.919 46.1168C241.919 45.6532 241.966 45.6059 242.381 45.6539C242.673 45.6875 242.864 45.8232 242.902 46.0236Z" fill="white"/>
<defs>
<clipPath id="clip0_21_130">
<rect width="109.568" height="50" fill="white" transform="translate(289)"/>
</clipPath>
</defs>
</svg>
