<svg width="827" height="250" viewBox="0 0 827 250" fill="none" xmlns="http://www.w3.org/2000/svg">
<g clip-path="url(#clip0_8_67)">
<path d="M257 60.7H273.1V115.94H273.47C276.196 111.171 280.186 107.247 285 104.6C289.985 101.659 295.653 100.074 301.44 100C313.33 100 332.36 107.31 332.36 137.86V190.55H316.26V139.72C316.26 125.45 310.96 113.38 295.77 113.38C285.35 113.38 277.11 120.7 274.19 129.48C273.309 131.94 272.935 134.552 273.09 137.16V190.58H257V60.7Z" fill="white"/>
<path d="M407.54 190.58L406.26 179.42H405.71C400.78 186.42 391.26 192.59 378.64 192.59C360.71 192.59 351.57 179.97 351.57 167.16C351.57 145.76 370.57 134.05 404.8 134.23V132.4C404.8 125.09 402.8 111.92 384.68 111.92C376.537 111.945 368.559 114.222 361.63 118.5L358 107.89C365.32 103.13 375.93 100.03 387.08 100.03C414.16 100.03 420.74 118.5 420.74 136.25V169.36C420.623 176.462 421.115 183.562 422.21 190.58H407.54ZM405.16 145.39C387.6 145.03 367.67 148.14 367.67 165.33C367.67 175.76 374.62 180.7 382.85 180.7C387.53 180.828 392.128 179.46 395.977 176.795C399.826 174.129 402.724 170.306 404.25 165.88C404.817 164.231 405.124 162.504 405.16 160.76V145.39Z" fill="white"/>
<path d="M464.62 77.16C464.8 82.65 460.78 87.04 454.37 87.04C453.077 87.0569 451.793 86.8115 450.598 86.3185C449.402 85.8255 448.318 85.0953 447.413 84.1718C446.507 83.2484 445.798 82.1509 445.328 80.9458C444.858 79.7406 444.638 78.4528 444.68 77.16C444.646 75.8296 444.882 74.506 445.376 73.2699C445.869 72.0339 446.609 70.9111 447.55 69.97C448.491 69.0289 449.614 68.2892 450.85 67.7958C452.086 67.3024 453.41 67.0657 454.74 67.1C460.74 67.1 464.62 71.49 464.62 77.16ZM446.69 102H462.79V190.54H446.69V102Z" fill="white"/>
<path d="M489.5 126C489.5 116.86 489.31 109.36 488.76 102H503L503.92 116.63H504.28C508.7 108.26 519 100 533.58 100C545.84 100 564.86 107.31 564.86 137.68V190.55H548.76V139.55C548.76 125.28 543.46 113.39 528.28 113.39C517.67 113.39 509.44 120.89 506.69 129.85C505.915 132.273 505.543 134.807 505.59 137.35V190.59H489.5V126Z" fill="white"/>
<path d="M607.48 67.28H591.57V190.57H607.48V67.28Z" fill="white"/>
<path d="M635.29 68.93C646.49 67.2335 657.802 66.3778 669.13 66.37C692 66.37 708.28 71.67 719.07 81.73C730.07 91.79 736.45 106.06 736.45 126C736.45 146.12 730.23 162.59 718.7 173.93C707.18 185.45 688.16 191.67 664.19 191.67C654.537 191.724 644.888 191.237 635.29 190.21V68.93ZM651.2 178C656.534 178.737 661.917 179.044 667.3 178.92C701.3 178.92 719.8 159.92 719.8 126.6C720 97.46 703.52 79 669.86 79C663.6 78.8994 657.346 79.4524 651.2 80.65V178Z" fill="white"/>
<path d="M820.96 132.77H773.03V177.22H826.45V190.57H757.12V67.28H823.71V80.64H773.03V119.6H820.96V132.77Z" fill="white"/>
<path d="M178.23 145.63C174.523 160.903 167.267 173.18 156.46 182.46C144 193.127 128.703 198.46 110.57 198.46C86.7034 198.46 67.8968 190.437 54.1501 174.39C45.2647 163.997 39.2767 151.445 36.7901 138H26.1001C29.2468 156.667 36.9334 172.133 49.1601 184.4C64.8734 200.293 85.3434 208.237 110.57 208.23C133.237 208.23 152.123 200.69 167.23 185.61C178.417 174.822 186.023 160.86 189.02 145.61L178.23 145.63Z" fill="white"/>
<path d="M164.56 145.63C161.537 155.548 155.776 164.411 147.94 171.2C137.633 180.053 124.987 184.477 110 184.47C90.2734 184.47 74.7267 177.837 63.3601 164.57C52.7534 152.243 47.4467 136.577 47.4401 117.57C47.4401 98.9434 53.1067 83.2767 64.4401 70.57C76.1734 57.3034 91.3434 50.67 109.95 50.67C123.283 50.67 134.773 53.9534 144.42 60.52C149.836 64.0646 154.459 68.6917 158 74.11H167.81C163.983 66.3823 158.355 59.6875 151.4 54.59C140.287 46.55 126.487 42.53 110 42.53C87.1534 42.53 69.1734 50.7067 56.0601 67.06C44.5734 81.1267 38.8267 97.9467 38.8201 117.52C38.8201 140.713 45.6267 159.143 59.2401 172.81C72.2334 185.95 89.1534 192.517 110 192.51C128.74 192.51 144.35 186.28 156.83 173.82C164.844 166.08 170.662 156.352 173.69 145.63H164.56Z" fill="white"/>
<path d="M200.89 145.63C196.89 169.303 186.92 187.97 170.98 201.63C154.84 215.503 135.027 222.437 111.54 222.43C80.62 222.43 56.2567 212.033 38.45 191.24C21.8167 171.907 13.4833 147.33 13.45 117.51C13.45 88.3233 22.3533 63.7467 40.16 43.78C58.56 22.9933 82.3367 12.5967 111.49 12.59C132.43 12.59 150.43 17.7367 165.49 28.03C181.71 38.89 192.25 54.2467 197.11 74.1H210.65C205.403 50.26 193.973 31.8567 176.36 18.89C158.98 6.29667 137.373 0 111.54 0C75.7333 0 47.5533 12.8133 27 38.44C9 60.4933 0 86.8533 0 117.52C0 153.84 10.6667 182.72 32 204.16C52.3533 224.72 78.8667 235 111.54 235C140.873 235 165.337 225.233 184.93 205.7C201.897 188.927 211.737 168.89 214.45 145.59L200.89 145.63Z" fill="white"/>
<path d="M173.45 74.11H184.3C179.55 60.45 171.7 49.51 160.65 41.39C147.21 31.6633 130.517 26.7967 110.57 26.79C82.9301 26.79 61.1768 36.6833 45.3101 56.47C35.6916 68.174 29.1777 82.1132 26.3701 97H37.0001C39.8662 83.4516 46.2504 70.8971 55.5101 60.6C69.7101 44.5467 88.0634 36.52 110.57 36.52C126.737 36.52 140.637 40.4933 152.27 48.44C161.748 54.6757 169.128 63.6207 173.45 74.11" fill="white"/>
</g>
<defs>
<clipPath id="clip0_8_67">
<rect width="826.45" height="249.92" fill="white"/>
</clipPath>
</defs>
</svg>
