<svg width="923" height="50" viewBox="0 0 923 50" fill="none" xmlns="http://www.w3.org/2000/svg">
<path d="M364.091 41.623V33.5079L364.798 33.377C368.253 32.6702 370.531 31.0471 371.84 28.3508C372.808 26.3874 372.861 23.5864 371.944 21.5183C371.054 19.4764 368.751 17.4346 366.552 16.7539C365.609 16.466 364.733 16.0995 364.524 16.0995C364.21 16.0995 364.091 14.8691 364.091 7.98429C364.091 3.4555 364.222 0 364.091 0C363.62 0 361.84 0.366492 361.185 0.811518C360.819 1.0733 359.824 2.43456 358.986 3.82199C354.693 11.0209 349.876 15.7592 342.416 20.1571C340.321 21.3874 339.719 22.0681 339.196 23.7696C338.908 24.7382 338.934 25.0785 339.3 26.2565C339.798 27.801 340.531 28.6126 342.494 29.712C345.295 31.2827 349.196 34.11 351.369 36.1518C353.725 38.3508 356.709 42.0942 358.437 45.0262C358.986 45.9686 359.745 47.1728 360.086 47.6963C360.766 48.6911 362.494 49.7382 363.515 49.7382H364.091V41.623ZM361.107 32.6963C357.389 31.3089 355.007 27.2513 355.714 23.5079C356.421 19.8691 359.379 16.9895 362.808 16.5707L364.091 16.4136V24.8429V33.2461H363.306C362.887 33.2461 361.892 33.0105 361.107 32.6963Z" fill="#FF9B53"/>
<path d="M364.131 8.11518V16.2304L363.424 16.3613C359.969 17.0681 357.691 18.6911 356.382 21.3874C355.414 23.3508 355.362 26.1518 356.278 28.2199C357.168 30.2618 359.471 32.3037 361.67 32.9843C362.613 33.2723 363.555 33.5079 363.765 33.5079C364.079 33.5079 364.131 34.8691 364.131 41.7539C364.131 46.2827 364.236 50 364.367 50C364.838 50 366.382 49.3717 367.037 48.9267C367.403 48.6649 368.398 47.3037 369.236 45.9162C373.529 38.7173 378.346 33.9791 385.807 29.5812C387.901 28.3508 388.503 27.6702 389.026 25.9686C389.314 25 389.288 24.6597 388.922 23.4817C388.424 21.9372 387.691 21.1257 385.728 20.0262C382.927 18.4555 379.026 15.6283 376.854 13.5864C374.498 11.3874 371.513 7.64398 369.786 4.71204C369.236 3.76963 368.477 2.56544 368.136 2.04188C367.456 1.04712 365.728 -1.57952e-06 364.707 -1.57952e-06H364.131V8.11518ZM367.115 17.0419C370.833 18.4293 373.215 22.4869 372.508 26.2304C371.801 29.8691 368.843 32.7487 365.414 33.1675L364.131 33.3246V24.8953V16.4921H364.916C365.335 16.4921 366.33 16.7277 367.115 17.0419Z" fill="#FF1200"/>
<path d="M531.487 9.16249C530.413 9.81694 529.837 10.9426 529.837 12.3562C529.837 16.0735 534.68 17.3039 536.644 14.084C537.638 12.4609 537.089 10.1573 535.466 9.16249C534.366 8.48186 532.586 8.48186 531.487 9.16249Z" fill="white"/>
<path d="M418.267 10.4974C415.937 10.7591 414.236 11.3351 412.377 12.5392C409.733 14.2408 407.796 17.0419 406.932 20.3926C406.382 22.5392 406.382 27.068 406.932 29.1885C408.188 34.0837 411.67 37.644 416.382 38.8481C418.267 39.3193 421.853 39.3979 423.869 38.979C427.272 38.2722 430.78 35.7591 432.194 32.9843C432.874 31.623 433.555 29.7905 433.398 29.6597C433.293 29.5549 427.848 28.534 427.377 28.534C427.22 28.534 426.879 29.0576 426.618 29.6858C426.094 30.9424 424.654 32.5392 423.424 33.1937C422.9 33.4816 421.984 33.6387 420.544 33.6387C417.194 33.6387 415.361 32.4607 413.895 29.3193C413.267 28.0104 413.215 27.5654 413.215 24.7382C413.215 21.8324 413.267 21.4921 413.921 20.2618C414.942 18.3246 415.806 17.4084 417.325 16.6492C418.843 15.89 420.806 15.7591 422.56 16.2827C424.026 16.7015 425.728 18.3246 426.408 19.8953C426.722 20.6021 427.063 21.2042 427.167 21.2042C427.639 21.2042 433.084 20.157 433.188 20.0262C433.476 19.7644 432.586 17.4084 431.67 15.9947C429.026 11.911 424.131 9.89526 418.267 10.4974Z" fill="white"/>
<path d="M443.581 18.4028C439.366 19.4761 436.801 22.4342 436.068 27.0415C435.335 31.9106 437.612 36.4656 441.827 38.4289C443.188 39.0834 443.607 39.1357 446.461 39.1357C449.314 39.1357 449.733 39.0834 451.094 38.4289C452.796 37.6436 454.681 35.8635 455.466 34.3452C456.094 33.0886 456.33 33.2457 452.665 32.5651L450.256 32.1462L449.681 32.853C447.9 35.1043 443.843 34.5808 442.455 31.9368L441.853 30.7588L449.052 30.6802L456.277 30.6279L456.461 29.8949C456.749 28.6907 456.094 25.1305 455.23 23.3766C454.236 21.3609 452.325 19.6069 450.309 18.8478C448.476 18.141 445.387 17.9577 443.581 18.4028ZM448.058 23.298C449.183 23.8478 449.759 24.5022 450.099 25.5755L450.283 26.1776H446.225C443.974 26.1776 442.141 26.1253 442.141 26.0467C442.141 25.6802 442.927 24.4237 443.503 23.9001C444.785 22.696 446.356 22.4865 448.058 23.298Z" fill="white"/>
<path d="M469.812 18.3504C468.555 18.6384 467.168 19.5808 466.33 20.7065L465.702 21.5703V20.0782V18.586H462.56H459.419V28.7955V39.0049H462.56H465.702V33.5599C465.702 30.4185 465.833 27.696 465.99 27.0939C466.147 26.518 466.723 25.6279 467.246 25.1044C468.293 24.0311 469.628 23.5599 471.539 23.5599H472.77V20.8112V18.0625L471.801 18.0887C471.251 18.1148 470.361 18.2195 469.812 18.3504Z" fill="white"/>
<path d="M480.152 18.4557C477.482 19.2149 475.152 21.2568 474.393 23.5343C474.21 24.0317 474.105 24.4505 474.157 24.5029C474.236 24.6076 478.843 25.3929 479.341 25.3929C479.576 25.3929 479.89 25.105 480.047 24.7385C480.44 23.9008 481.854 23.0369 482.848 23.0369C483.896 23.0369 485.283 23.927 485.623 24.7908C486.068 25.9427 485.78 26.1783 483.974 26.1783C480.362 26.2044 476.801 27.4086 475.152 29.1887C472.613 31.9374 473.267 36.3092 476.54 38.351C477.587 38.9793 478.163 39.1364 479.733 39.2149C481.985 39.3458 483.11 39.0055 484.681 37.8013L485.859 36.9112V37.9584V39.0055H489.026H492.168L492.089 31.4662L492.011 23.9531L491.252 22.4348C490.44 20.7332 488.896 19.4243 486.906 18.7175C485.231 18.0893 481.854 17.9845 480.152 18.4557ZM485.649 31.1521C485.492 33.1416 483.922 34.6861 482.063 34.6861C479.341 34.6861 479 31.8851 481.618 30.8641C482.403 30.55 484.733 30.1311 485.335 30.2097C485.623 30.2359 485.702 30.5238 485.649 31.1521Z" fill="white"/>
<path d="M505.754 18.2983C504.576 18.6648 503.345 19.3977 502.717 20.0784L502.089 20.759V19.6595V18.5862H498.817H495.544V28.7956V39.0312L498.764 38.9527L501.958 38.8742L502.089 32.3297C502.194 26.4658 502.272 25.7066 502.717 25.0522C503.372 24.0836 503.921 23.8218 505.309 23.8218C506.67 23.8218 507.508 24.5548 507.874 26.0993C508.005 26.6491 508.11 29.7642 508.11 33.0365V39.0051H511.251H514.393V32.7747C514.393 27.2511 514.471 26.4396 514.89 25.471C515.492 24.1883 516.068 23.8218 517.482 23.8218C518.948 23.8218 519.785 24.5548 520.126 26.204C520.283 26.9108 520.414 30.1045 520.414 33.2459V39.0051H523.555H526.696V32.2511C526.696 28.4815 526.565 24.8166 526.408 23.9527C525.754 20.3402 523.764 18.4815 520.335 18.1412C517.953 17.9318 515.989 18.56 514.393 20.0522L513.136 21.2302L512.56 20.4187C511.644 19.136 509.916 18.2721 508.031 18.1674C507.141 18.115 506.12 18.1674 505.754 18.2983Z" fill="white"/>
<path d="M547.455 18.4551C544.235 19.3452 542.298 20.9158 540.911 23.7693C539.942 25.7326 539.916 25.8111 539.916 28.7954C539.916 31.675 539.968 31.9106 540.754 33.5336C541.775 35.6279 543.659 37.4603 545.754 38.4289C547.089 39.0572 547.534 39.1357 550.256 39.1357C553.084 39.1357 553.372 39.0834 555.021 38.298C557.115 37.3295 558.712 35.785 559.576 33.9525C560.309 32.3295 560.361 31.7535 559.759 31.5703C559.026 31.3609 554.392 30.6017 554.34 30.6802C553.372 32.8792 552.377 33.7693 550.728 33.9525C549.052 34.1357 547.796 33.4813 546.906 31.963C546.303 30.942 546.199 30.4708 546.199 28.7954C546.199 25.0782 548.267 22.9577 551.251 23.586C552.272 23.7954 553.817 25.1829 554.026 26.0729C554.235 26.8321 554.262 26.8321 557.586 26.2562C560.623 25.7588 560.675 25.6541 559.523 23.3504C558.659 21.5965 556.356 19.5284 554.445 18.8216C552.56 18.1148 549.288 17.9316 547.455 18.4551Z" fill="white"/>
<path d="M530.361 28.7955V39.0049H533.503H536.644V28.7955V18.586H533.503H530.361V28.7955Z" fill="white"/>
<path fill-rule="evenodd" clip-rule="evenodd" d="M757.808 0.0237502C757.602 0.0528097 757.01 0.136606 756.493 0.210132C753.458 0.642015 750.394 1.91449 748.237 3.63927C747.05 4.58896 744.817 6.99226 744.983 7.14244C745.01 7.16674 745.903 7.75244 746.967 8.44398L748.902 9.70142L749.96 8.578C751.205 7.25517 752.198 6.51653 753.632 5.84604C755.737 4.86152 758.254 4.49164 761.297 4.71973C764.922 4.99141 767.816 6.10181 769.549 7.88596C771.594 9.99139 772.075 13.4141 770.706 16.1173C769.692 18.1206 767.5 19.6981 764.673 20.4601C763.475 20.7831 763.337 20.7922 758.967 20.8401L754.489 20.8891V23.3844V25.8799L758.842 25.8824C764.505 25.8857 765.779 26.0718 768.205 27.2513C770.534 28.3834 772.14 30.1252 772.855 32.294C773.152 33.1962 773.198 33.5383 773.202 34.8983C773.209 36.6953 773.016 37.5788 772.316 38.9692C770.873 41.8343 768.154 43.6913 764.131 44.5595C763.008 44.8017 762.439 44.8432 760.188 44.8467C757.193 44.8515 756.117 44.7022 753.827 43.9631C751.334 43.1591 749.336 42.0192 747.365 40.2784C746.745 39.7305 746.21 39.2823 746.175 39.2823C746.141 39.2823 745.364 40.1074 744.448 41.1158L742.784 42.9493L743.344 43.4501C746.829 46.565 750.758 48.5724 755.215 49.5158C756.708 49.8319 757.011 49.8529 760.126 49.8576C763.293 49.8623 763.52 49.8466 765.073 49.514C768.628 48.7531 771.201 47.5889 773.591 45.6605C776.095 43.6402 777.751 40.8208 778.291 37.654C778.486 36.5165 778.487 34.0323 778.294 32.8316C777.615 28.5998 775.141 25.2507 771.429 23.5356L770.489 23.1012L771.038 22.7769C773.806 21.142 775.731 18.5279 776.336 15.5828C776.578 14.4083 776.587 12.2584 776.357 10.9683C775.172 4.3248 769.158 0.203618 760.376 0.0174875C759.171 -0.00806476 758.015 -0.00530922 757.808 0.0237502ZM672.826 0.455258C668.792 0.875868 665.823 2.19432 663.336 4.66863C660.819 7.17275 659.545 10.7478 659.918 14.2624C660.059 15.5965 660.163 16.0083 660.664 17.2238C661.742 19.8363 663.76 21.8459 666.872 23.4057C669.506 24.7259 671.686 25.4435 679.293 27.4956C682.839 28.4523 685.614 29.5538 687.017 30.5619C687.965 31.2429 688.443 31.7436 689.025 32.6653C690.373 34.796 690.492 37.5608 689.336 39.8407C687.852 42.7668 685.274 44.3899 681.062 45.0505C679.647 45.2723 676.235 45.1427 674.536 44.8025C670.805 44.0553 667.153 42.0542 664.542 39.325C663.228 37.952 663.3 38.1637 663.3 35.6956V33.5205H661.046H658.791V41.4743V49.4281H661.046H663.3V47.0874V44.7467L663.645 45.0555C669.237 50.0676 680.819 51.5641 687.788 48.1749C691.22 46.506 693.58 43.8336 694.73 40.3156C695.238 38.7621 695.413 37.4079 695.332 35.6663C695.144 31.6268 693.238 28.4648 689.542 26.0609C686.799 24.2767 683.267 22.9413 677.008 21.3222C672.573 20.1749 671.396 19.7933 669.626 18.9278C667.421 17.8502 665.999 16.5181 665.415 14.9826C665.08 14.1026 664.968 12.4842 665.18 11.5864C665.841 8.78179 668.574 6.52305 672.382 5.63435C673.782 5.30756 677.436 5.30643 678.934 5.63222C682.322 6.36898 685.565 8.01222 688.175 10.3154L689.292 11.3001L689.369 12.2332C689.412 12.7465 689.454 13.9415 689.463 14.8887L689.479 16.6109H691.671H693.864V8.9703V1.32967H691.671H689.479V3.08326C689.479 4.04773 689.446 4.83685 689.405 4.83685C689.364 4.83685 688.815 4.49202 688.184 4.07053C685.821 2.48992 682.708 1.2346 679.819 0.697879C678.195 0.396137 674.591 0.271131 672.826 0.455258ZM716.039 0.463776C712.246 0.829023 709.046 2.22751 706.685 4.55214C705.182 6.03167 704.2 7.6729 703.553 9.78447C703.233 10.8315 703.208 11.068 703.208 13.1038C703.208 15.1721 703.227 15.3522 703.554 16.2978C704.515 19.0826 706.364 21.2468 709.199 22.9064C711.604 24.3141 715.191 25.5457 722.548 27.4906C725.509 28.2732 728.84 29.5553 730.027 30.369C731.465 31.3551 732.478 32.6856 733.019 34.3016C734.119 37.5843 732.507 41.452 729.227 43.4004C726.177 45.2122 721.454 45.6693 716.84 44.5991C713.438 43.8103 709.053 41.088 706.995 38.4882L706.515 37.882V35.6386V33.3953H704.323H702.131V41.4117V49.4281H704.323H706.515V47.1195V44.8109L707.673 45.6758C711.772 48.7354 717.635 50.3025 723.613 49.9362C728.685 49.6255 732.296 48.1432 735.03 45.2491C737.387 42.7534 738.583 39.7228 738.579 36.2565C738.576 33.7269 738.005 31.7619 736.708 29.8255C734.146 26.0008 729.197 23.4997 719.479 21.1195C714.272 19.8442 711.117 18.4085 709.656 16.6494C708.599 15.3769 708.12 13.6431 708.374 12.0084C708.834 9.05385 711.385 6.746 715.345 5.70237C716.759 5.32998 719.653 5.24042 721.358 5.51624C725.253 6.14665 729.076 8.03664 731.848 10.7033L732.694 11.5165V14.0666V16.6167L734.917 16.5825L737.141 16.5483V8.9703V1.3923L734.917 1.35811L732.694 1.32391V3.08038C732.694 4.04648 732.667 4.83685 732.635 4.83685C732.602 4.83685 732.053 4.49277 731.414 4.07216C726.916 1.1126 721.792 -0.0899824 716.039 0.463776ZM612.069 3.33377V5.8389H614.512H616.954V25.7546V45.6704H614.324H611.693V47.7371V49.8038H619.459H627.226V47.7371V45.6704H624.72H622.215V36.6503V27.6301L626.427 27.6632L630.639 27.6961L635.312 34.8983C637.882 38.8596 640.493 42.8897 641.113 43.8542L642.241 45.6078L639.619 45.6416L636.996 45.6754V47.7396V49.8038H645.326H653.655V47.7371V45.6704H651.021H648.386L644.225 39.3795C641.937 35.9196 639.243 31.8472 638.24 30.3298L636.415 27.5709L637.641 27.4859C640.92 27.2587 644.003 25.8123 646.39 23.3813C648.611 21.119 649.814 17.8977 649.806 14.2311C649.801 11.8992 649.374 10.0448 648.381 8.04466C646.428 4.11136 642.954 1.71095 638.123 0.957536C637.613 0.877998 632.593 0.83015 624.689 0.829649L612.069 0.828647V3.33377ZM636.921 5.7184C637.397 5.78717 638.274 6.00662 638.869 6.20615C642.528 7.43191 644.566 10.292 644.544 14.1684C644.53 16.5514 643.696 18.5902 641.983 20.4287C641.021 21.4605 640.122 21.9947 638.663 22.401C637.716 22.6649 637.438 22.6751 629.95 22.7188L622.215 22.764V14.1762V5.58838L629.136 5.59089C633.065 5.59227 636.43 5.64738 636.921 5.7184Z" fill="white"/>
<rect x="595" y="22.416" width="12.5596" height="5.16693" fill="#0B70FF"/>
<rect x="782.599" y="22.416" width="12.5596" height="5.16693" fill="#0B70FF"/>
<g clip-path="url(#clip0_21_166)">
<path fill-rule="evenodd" clip-rule="evenodd" d="M40.0373 27.1894L57.0419 44.7919C57.2462 45.0002 57.4087 45.2481 57.5202 45.5215C57.6317 45.7948 57.6902 46.0883 57.6923 46.385C57.6942 46.6817 57.6398 46.976 57.5317 47.251C57.4238 47.526 57.2648 47.7762 57.0635 47.9875L55.8158 49.2746C55.465 49.655 55.0019 49.9033 54.4994 49.9802C54.1677 50.0262 53.8302 49.9919 53.5133 49.8802C53.1963 49.7687 52.9088 49.5825 52.6729 49.3367L31.9081 27.8419C31.5471 27.4688 31.2608 27.0258 31.0652 26.5379C30.8698 26.0502 30.7692 25.5273 30.7692 24.9992C30.7692 24.4712 30.8698 23.9483 31.0652 23.4604C31.2608 22.9727 31.5471 22.5294 31.9081 22.1563L52.6729 0.661658C52.8752 0.451906 53.1154 0.285498 53.38 0.171963C53.6444 0.0584279 53.9279 0 54.2142 0C54.5006 0 54.784 0.0584279 55.0487 0.171963C55.3131 0.285498 55.5535 0.451906 55.7558 0.661658L57.0419 2.01535C57.2446 2.22475 57.4054 2.47346 57.515 2.74723C57.6246 3.02102 57.6812 3.3145 57.6812 3.6109C57.6812 3.90729 57.6246 4.20077 57.515 4.47456C57.4054 4.74835 57.2446 4.99708 57.0419 5.2065L40.0373 22.8133C39.4796 23.3952 39.1667 24.1817 39.1667 25.0013C39.1667 25.8212 39.4796 26.6075 40.0373 27.1894ZM17.6542 22.8319L0.656198 5.22496C0.44994 5.0164 0.285729 4.76752 0.17309 4.49273C0.0604508 4.21794 0.00162815 3.92273 3.33214e-05 3.62421C-0.00156151 3.32569 0.0541073 3.02981 0.163803 2.75373C0.273498 2.47767 0.435048 2.22692 0.639063 2.01602L1.88198 0.724446C2.23592 0.346452 2.69948 0.098649 3.20204 0.018761C3.53363 -0.0257258 3.87067 0.00915516 4.18719 0.120727C4.50373 0.232298 4.79133 0.417563 5.02785 0.662304L25.7846 22.1573C26.1456 22.5304 26.4317 22.9737 26.6271 23.4613C26.8225 23.9492 26.9231 24.4721 26.9231 25.0002C26.9231 25.5283 26.8225 26.0512 26.6271 26.5388C26.4317 27.0267 26.1456 27.4698 25.7846 27.8429L5.02785 49.3379C4.82525 49.5479 4.58471 49.7144 4.31998 49.8279C4.05523 49.9415 3.77148 50 3.4849 50C3.19835 50 2.91458 49.9415 2.64985 49.8279C2.3851 49.7144 2.14456 49.5479 1.94198 49.3379L0.656198 48.0065C0.453517 47.7967 0.292738 47.5475 0.183043 47.2735C0.0733481 46.9992 0.0168929 46.7054 0.0168929 46.4087C0.0168929 46.1119 0.0733481 45.8181 0.183043 45.5438C0.292738 45.2696 0.453517 45.0206 0.656198 44.8108L17.6542 27.2083C18.2117 26.6263 18.5245 25.8398 18.5245 25.02C18.5245 24.2004 18.2117 23.4138 17.6542 22.8319Z" fill="white"/>
<path fill-rule="evenodd" clip-rule="evenodd" d="M144.812 21.6715C143.537 20.8395 142.045 20.4057 140.523 20.4253C139.282 20.4055 138.057 20.7086 136.968 21.3049C136.273 21.6726 135.652 22.1645 135.135 22.7561V11.9951H131.103V38.3851H135.135V36.4676C135.647 37.0476 136.254 37.5353 136.931 37.9088C138.04 38.4845 139.274 38.7743 140.523 38.7517C142.04 38.7724 143.529 38.3522 144.812 37.5422C146.098 36.7447 147.148 35.6188 147.854 34.2801C148.62 32.8495 149.011 31.248 148.99 29.6251C149.017 28.0017 148.626 26.3988 147.854 24.9703C147.156 23.6161 146.105 22.4763 144.812 21.6715ZM144.188 32.3742C143.79 33.1605 143.181 33.8203 142.429 34.2801C141.652 34.734 140.764 34.9647 139.863 34.9465C138.952 34.9617 138.053 34.7317 137.261 34.2801C136.508 33.8213 135.899 33.1611 135.502 32.3742C135.072 31.5095 134.859 30.5538 134.879 29.5886C134.859 28.6234 135.072 27.6676 135.502 26.8028C135.893 26.0215 136.505 25.3717 137.261 24.9336C138.046 24.4615 138.948 24.2199 139.863 24.2372C140.768 24.217 141.659 24.4588 142.429 24.9336C143.185 25.3726 143.796 26.022 144.188 26.8028C144.643 27.6599 144.872 28.6186 144.855 29.5886C144.872 30.5586 144.643 31.517 144.188 32.3742ZM101.072 34.7199C102.635 34.7199 103.955 34.4878 105.03 34.0234C106.085 33.564 107.031 32.8886 107.809 32.0409L110.668 34.8997C109.486 36.1032 108.079 37.0622 106.526 37.722C104.938 38.4063 103.117 38.7484 101.065 38.7484C99.2948 38.7647 97.539 38.4284 95.9002 37.7588C94.3538 37.0967 92.9546 36.1334 91.7842 34.9253C90.6138 33.717 89.6954 32.288 89.0827 30.7215C88.4417 29.0755 88.1184 27.323 88.1298 25.5567C88.1167 23.8007 88.4413 22.0586 89.0861 20.4253C89.6952 18.8517 90.6167 17.4179 91.795 16.2102C92.9986 14.9719 94.4419 13.992 96.0369 13.3303C97.6319 12.6685 99.345 12.339 101.072 12.3616C103.15 12.3605 104.945 12.7048 106.456 13.3946C107.959 14.068 109.326 15.0097 110.491 16.1735L107.632 19.0324C106.857 18.1892 105.906 17.5261 104.847 17.0898C103.774 16.6256 102.516 16.3934 101.072 16.3934C99.878 16.3807 98.694 16.6073 97.5896 17.0598C96.5488 17.4906 95.6117 18.138 94.8405 18.9591C94.0654 19.7955 93.4679 20.7807 93.0846 21.8547C92.6586 23.0418 92.4477 24.2955 92.4615 25.5567C92.4473 26.8155 92.6573 28.0667 93.0813 29.2518C93.4709 30.3347 94.0686 31.3307 94.8405 32.1842C95.6194 32.9888 96.555 33.6249 97.5896 34.0534C98.694 34.5061 99.878 34.7326 101.072 34.7199ZM115.164 20.7915L119.671 32.254L124.438 20.7915H128.909L120.736 38.5682L117.474 45.7155H113.002L117.419 36.6155L110.729 20.7915H115.164ZM160.311 20.4222C161.952 20.4213 163.396 20.7999 164.642 21.5586C165.895 22.303 166.918 23.3788 167.598 24.6674C168.347 26.0503 168.726 27.6032 168.697 29.1757C168.697 29.4826 168.672 29.789 168.624 30.092C168.595 30.4243 168.546 30.7549 168.478 31.0817H155.354C155.459 31.5276 155.62 31.9588 155.832 32.3645C156.256 33.1782 156.905 33.8526 157.702 34.307C158.559 34.7615 159.517 34.9909 160.487 34.9736C161.344 34.9843 162.194 34.8224 162.986 34.497C163.747 34.1953 164.425 33.718 164.966 33.1042L167.531 35.7065C166.688 36.7003 165.62 37.4792 164.416 37.979C163.186 38.494 161.864 38.7559 160.531 38.7488C158.869 38.7745 157.228 38.3728 155.766 37.5824C154.356 36.7847 153.189 35.6199 152.389 34.2118C151.588 32.8036 151.185 31.2047 151.221 29.5855C151.202 28.3832 151.424 27.1893 151.873 26.074C152.322 24.9586 152.99 23.9442 153.837 23.0905C154.684 22.2368 155.693 21.5611 156.804 21.1028C157.916 20.6447 159.108 20.4132 160.311 20.4222ZM157.572 24.784C156.816 25.223 156.205 25.8726 155.812 26.6534L155.809 26.6567C155.622 27.0134 155.479 27.3917 155.382 27.7828H164.744C164.65 27.3005 164.494 26.8322 164.279 26.3901C163.936 25.6818 163.387 25.0942 162.703 24.704C162.044 24.313 161.226 24.1176 160.247 24.1176C159.312 24.0967 158.388 24.3268 157.572 24.784ZM182.939 20.9017C182.188 20.5749 181.376 20.4126 180.557 20.4251C178.557 20.4251 177.055 21.1217 176.048 22.5143C176.033 22.5363 176.018 22.5588 176.003 22.5815L175.975 22.6226V20.7901H171.943V38.3851H175.975V28.5988C175.975 27.0838 176.342 25.973 177.075 25.2667C177.808 24.5603 178.736 24.2059 179.86 24.2038C180.322 24.1951 180.781 24.2695 181.217 24.4236C181.623 24.5809 181.988 24.832 182.279 25.1567L184.927 22.4411C184.386 21.7872 183.707 21.2615 182.939 20.9017ZM199.719 34.7199C201.284 34.7199 202.604 34.4876 203.679 34.0234C204.734 33.5643 205.682 32.889 206.459 32.0409L209.319 34.8997C208.136 36.1032 206.731 37.062 205.177 37.722C203.588 38.4063 201.769 38.7484 199.715 38.7484C197.946 38.7647 196.19 38.4282 194.552 37.7588C193.006 37.0967 191.606 36.1334 190.435 34.9251C189.265 33.717 188.347 32.288 187.734 30.7213C187.093 29.0755 186.77 27.323 186.781 25.5567C186.767 23.8009 187.09 22.0588 187.734 20.4251C188.344 18.8514 189.267 17.4175 190.446 16.2101C191.649 14.9723 193.092 13.9926 194.686 13.3309C196.281 12.6692 197.994 12.3394 199.719 12.3616C201.796 12.3605 203.592 12.7048 205.107 13.3945C206.609 14.0683 207.975 15.01 209.14 16.1735L206.281 19.0324C205.506 18.1892 204.554 17.5261 203.494 17.0898C202.421 16.6255 201.163 16.3934 199.719 16.3934C198.527 16.3806 197.342 16.6072 196.238 17.0598C195.196 17.4905 194.259 18.138 193.488 18.9591C192.711 19.7953 192.113 20.7803 191.729 21.8547C191.303 23.0418 191.092 24.2955 191.106 25.5567C191.093 26.8155 191.304 28.0668 191.729 29.2518C192.119 30.3345 192.717 31.3307 193.488 32.1842C194.267 32.9888 195.204 33.6249 196.238 34.0534C197.342 34.5061 198.527 34.7326 199.719 34.7199ZM224.788 21.6349C223.361 20.8195 221.74 20.4018 220.096 20.4255C218.459 20.4053 216.85 20.8365 215.442 21.6717C214.071 22.4574 212.925 23.5803 212.109 24.9338C211.292 26.3353 210.873 27.9332 210.896 29.5553C210.877 31.1872 211.294 32.7947 212.106 34.2103C212.919 35.5838 214.065 36.7299 215.438 37.5422C216.486 38.1605 217.646 38.5649 218.85 38.7318C220.056 38.899 221.281 38.8253 222.457 38.5155C223.632 38.2057 224.736 37.6655 225.702 36.9265C226.667 36.1876 227.477 35.2643 228.084 34.2103C228.919 32.8026 229.352 31.1922 229.332 29.5553C229.356 27.9299 228.925 26.3305 228.086 24.937C227.3 23.5626 226.161 22.4228 224.788 21.6349ZM224.532 32.2976C224.127 33.0915 223.504 33.7528 222.736 34.2036C221.931 34.6576 221.021 34.8878 220.096 34.8699C219.175 34.882 218.263 34.6522 217.457 34.2036C216.7 33.7392 216.081 33.0813 215.661 32.2976C215.234 31.4451 215.021 30.5018 215.038 29.5486C215.019 28.6068 215.232 27.6747 215.661 26.8363C216.082 26.0736 216.704 25.4399 217.457 25.0038C218.257 24.5343 219.169 24.2934 220.096 24.3072C221.025 24.2874 221.938 24.5288 222.736 25.0038C223.49 25.4405 224.109 26.074 224.532 26.8363C224.986 27.667 225.215 28.602 225.198 29.5486C225.213 30.5078 224.984 31.4551 224.532 32.3009V32.2976ZM241.959 20.4253C243.207 20.4045 244.434 20.7622 245.477 21.4517C246.494 22.0992 247.331 22.9961 247.904 24.0572C248.473 25.0624 248.771 26.1978 248.769 27.3528V38.3853H244.738V28.2324C244.738 27.0607 244.361 26.0955 243.607 25.3368C242.875 24.5793 241.923 24.2005 240.75 24.2005C240.021 24.1878 239.3 24.3647 238.659 24.7138C238.059 25.0468 237.563 25.542 237.231 26.1432C236.881 26.7834 236.704 27.5034 236.717 28.2324V38.3853H232.686V20.7918H236.717V22.7828C237.2 22.2026 237.784 21.7143 238.44 21.3417C239.509 20.7257 240.725 20.4092 241.959 20.4253ZM265.665 21.4517C264.623 20.7622 263.396 20.4045 262.146 20.4253C260.911 20.4092 259.696 20.7257 258.627 21.3417C257.969 21.714 257.384 22.202 256.9 22.7828V20.7918H252.867V38.3853H256.9V28.2324C256.886 27.5034 257.063 26.7834 257.413 26.1432C257.746 25.542 258.24 25.0468 258.842 24.7138C259.482 24.3647 260.202 24.1878 260.931 24.2005C262.104 24.2005 263.057 24.5793 263.79 25.3368C264.55 26.0943 264.927 27.0595 264.927 28.2324V38.3853H268.957V27.3528C268.956 26.1955 268.654 25.0588 268.079 24.054C267.507 22.9955 266.677 22.0997 265.665 21.4517ZM281.009 20.4222C282.65 20.4213 284.094 20.7999 285.34 21.5586C286.592 22.304 287.615 23.3795 288.296 24.6674C289.046 26.0503 289.425 27.6032 289.396 29.1757C289.394 29.4826 289.369 29.7888 289.323 30.092C289.292 30.4243 289.244 30.7547 289.177 31.0817H276.052C276.157 31.5276 276.317 31.9588 276.531 32.3645C276.954 33.1782 277.604 33.8526 278.4 34.307C279.257 34.7617 280.215 34.9911 281.186 34.9736C282.042 34.9842 282.892 34.822 283.684 34.497C284.444 34.1945 285.123 33.7174 285.663 33.1042L288.229 35.7065C287.384 36.6995 286.317 37.4784 285.113 37.979C283.884 38.4938 282.563 38.7555 281.229 38.7488C279.567 38.7747 277.927 38.3732 276.463 37.5824C275.054 36.7847 273.888 35.6199 273.086 34.2118C272.286 32.8036 271.882 31.2047 271.919 29.5855C271.9 28.3832 272.123 27.1893 272.571 26.074C273.021 24.9586 273.688 23.9442 274.534 23.0905C275.382 22.2368 276.39 21.5611 277.504 21.1028C278.615 20.6447 279.807 20.4132 281.009 20.4222ZM278.271 24.784C277.513 25.222 276.902 25.8718 276.511 26.6534L276.507 26.6567C276.321 27.0132 276.177 27.3915 276.082 27.7828H285.44C285.348 27.3003 285.192 26.832 284.977 26.3901C284.634 25.6822 284.084 25.0947 283.402 24.704C282.74 24.313 281.923 24.1176 280.946 24.1176C280.009 24.0965 279.086 24.3267 278.271 24.784ZM298.065 25.007C298.877 24.5343 299.802 24.2934 300.742 24.3105C301.548 24.3005 302.348 24.463 303.086 24.787C303.813 25.0753 304.457 25.5417 304.956 26.1432L307.596 23.4676C306.769 22.4918 305.725 21.7236 304.548 21.2251C303.352 20.6822 302.05 20.407 300.736 20.4188C299.081 20.398 297.45 20.8153 296.007 21.6282C294.634 22.4151 293.496 23.5538 292.709 24.927C291.89 26.3401 291.473 27.9493 291.5 29.5818C291.479 31.2138 291.896 32.8215 292.709 34.2368C293.496 35.6101 294.634 36.7488 296.007 37.5357C297.306 38.2474 298.75 38.6567 300.229 38.7328C301.707 38.809 303.184 38.5501 304.548 37.9755C305.721 37.4563 306.759 36.6795 307.59 35.703L304.952 33.0272C304.446 33.632 303.806 34.1092 303.082 34.4201C302.336 34.7201 301.54 34.8697 300.736 34.8599C299.802 34.8751 298.879 34.6453 298.061 34.1936C297.309 33.7365 296.692 33.0922 296.265 32.3242C295.838 31.4717 295.625 30.5284 295.642 29.5753C295.619 28.6215 295.832 27.6768 296.265 26.8263C296.688 26.0678 297.311 25.439 298.065 25.007ZM316.923 20.7922H321.136V24.4574H316.923V38.3855H312.89V24.4574H308.675V20.7922H312.89V13.4616H316.923V20.7922Z" fill="white"/>
</g>
<g clip-path="url(#clip1_21_166)">
<path d="M841.538 0H830L844.423 25L830 50H841.538L855.962 25L841.538 0Z" fill="#1C68F3"/>
<path d="M869.423 0H879.038V50H869.423V0Z" fill="white"/>
<path fill-rule="evenodd" clip-rule="evenodd" d="M883.846 0V50H897.308C911.115 50 922.308 38.8077 922.308 25C922.308 11.1923 911.115 0 897.308 0H883.846ZM893.462 40.3846H897.308C905.805 40.3846 912.692 33.4968 912.692 25C912.692 16.5032 905.805 9.61538 897.308 9.61538H893.462V40.3846Z" fill="white"/>
<path d="M855 40.3848H864.615V50.0002H855V40.3848Z" fill="#1C68F3"/>
</g>
<defs>
<clipPath id="clip0_21_166">
<rect width="321.154" height="50" fill="white"/>
</clipPath>
<clipPath id="clip1_21_166">
<rect width="92.3077" height="50" fill="white" transform="translate(830)"/>
</clipPath>
</defs>
</svg>
